<?xml version="1.0" encoding="utf-8"?>
<!-- Generator: Adobe Illustrator 19.2.0, SVG Export Plug-In . SVG Version: 6.00 Build 0)  -->
<svg version="1.1" id="Layer_1" xmlns="http://www.w3.org/2000/svg" xmlns:xlink="http://www.w3.org/1999/xlink" x="0px" y="0px"
	 viewBox="0 0 185 39" style="enable-background:new 0 0 185 39;" xml:space="preserve">
<style type="text/css">
	.st0{stroke:#000000;stroke-miterlimit:10;}
	.st1{fill:#FFFFFF;}
</style>
<path id="box_D" class="st0" d="M177.5,30.6h-17.1c-1.7,0-3-1.3-3-3V10.5c0-1.6,1.3-3,3-3h17.1c1.7,0,3,1.3,3,3v17.1
	C180.5,29.3,179.1,30.6,177.5,30.6z"/>
<path id="D" class="st1" d="M163.7,10l4.6,0c2.4,0,4.5,0.9,6.3,2.6c1.8,1.7,2.7,3.9,2.7,6.4s-0.9,4.7-2.7,6.5
	c-1.8,1.8-3.9,2.7-6.5,2.7h-4.5c-1,0-1.6-0.2-1.9-0.6c-0.2-0.3-0.3-0.9-0.3-1.6V12.2c0-0.4,0-0.7,0-0.9c0-0.2,0.1-0.4,0.2-0.6
	C162,10.2,162.6,10,163.7,10z M171.5,22.4c1-0.9,1.4-2,1.4-3.3c0-1.3-0.5-2.5-1.4-3.4c-0.9-0.9-2-1.4-3.3-1.4h-2.4v9.4h2.4
	C169.5,23.8,170.6,23.3,171.5,22.4z"/>
<path id="box_O" class="st0" d="M151.7,30.6h-17.1c-1.6,0-3-1.3-3-3V10.5c0-1.6,1.4-3,3-3h17.1c1.6,0,3,1.3,3,3v17.1
	C154.7,29.3,153.3,30.6,151.7,30.6z"/>
<path id="O" class="st1" d="M143,9.7c2.4,0,4.6,0.9,6.4,2.7c1.8,1.8,2.7,4,2.7,6.6c0,2.6-0.9,4.9-2.6,6.7c-1.7,1.8-3.8,2.8-6.4,2.8
	c-2.5,0-4.7-0.9-6.4-2.7c-1.8-1.8-2.6-4-2.6-6.5c0-1.4,0.2-2.7,0.7-3.9c0.5-1.2,1.2-2.2,2-3c0.8-0.8,1.8-1.4,2.9-1.9
	C140.8,9.9,141.9,9.7,143,9.7z M138.5,19.1c0,1.5,0.5,2.7,1.4,3.6c1,0.9,2,1.4,3.2,1.4c1.2,0,2.2-0.4,3.2-1.3
	c0.9-0.9,1.4-2.1,1.4-3.6c0-1.5-0.5-2.7-1.4-3.6c-1-0.9-2-1.4-3.2-1.4c-1.2,0-2.2,0.5-3.2,1.4C139,16.4,138.5,17.6,138.5,19.1z"/>
<path id="box_M" class="st0" d="M125.9,30.6h-17.1c-1.7,0-3-1.3-3-3V10.5c0-1.6,1.3-3,3-3h17.1c1.7,0,3,1.3,3,3v17.1
	C128.9,29.3,127.5,30.6,125.9,30.6z"/>
<path id="M" class="st1" d="M126.5,10.7c0.1,0.2,0.2,0.5,0.2,0.7c0,0.2,0,0.5,0,0.9V26c0,1.1-0.3,1.8-0.9,2
	c-0.3,0.1-0.7,0.1-1.1,0.1c-0.5,0-0.8,0-1.1-0.1c-0.3-0.1-0.5-0.2-0.6-0.3c-0.1-0.1-0.3-0.3-0.3-0.5c-0.1-0.3-0.1-0.7-0.1-1.3v-8.3
	c-0.4,0.5-1,1.3-1.7,2.4c-0.8,1.1-1.2,1.8-1.4,2.1c-0.2,0.3-0.3,0.5-0.4,0.6c-0.1,0.1-0.3,0.3-0.6,0.4c-0.3,0.2-0.6,0.3-1,0.3
	c-0.4,0-0.7-0.1-1-0.3c-0.3-0.2-0.5-0.3-0.6-0.5l-0.2-0.3c-0.3-0.4-0.9-1.3-1.9-2.6c-0.9-1.3-1.4-2.1-1.5-2.2V26c0,0.4,0,0.7,0,0.9
	c0,0.2-0.1,0.4-0.2,0.6c-0.2,0.4-0.9,0.7-1.9,0.7c-1,0-1.6-0.2-1.8-0.7c-0.1-0.2-0.2-0.4-0.2-0.6c0-0.2,0-0.5,0-0.9V12.2
	c0-0.4,0-0.7,0-0.9c0-0.2,0.1-0.4,0.2-0.7c0.2-0.4,0.9-0.6,1.9-0.6c0.4,0,0.8,0.1,1.1,0.2c0.3,0.1,0.5,0.2,0.6,0.3l0.1,0.1l5.4,7.4
	c2.7-3.7,4.5-6.2,5.4-7.4c0.3-0.4,0.9-0.7,1.9-0.7C125.7,10,126.3,10.2,126.5,10.7z"/>
<path id="o" d="M93.3,8.1c2.9,0,5.3,1,7.5,3.1c2.1,2.1,3.2,4.6,3.2,7.7c0,3.1-1,5.7-3,7.8c-2,2.2-4.5,3.2-7.4,3.2
	c-2.9,0-5.4-1.1-7.5-3.2s-3.1-4.7-3.1-7.6c0-1.6,0.3-3.1,0.9-4.5c0.6-1.4,1.4-2.6,2.3-3.5c1-0.9,2.1-1.7,3.3-2.2
	C90.6,8.4,91.9,8.1,93.3,8.1z M88,19.1c0,1.7,0.6,3.1,1.7,4.2c1.1,1.1,2.4,1.6,3.7,1.6c1.4,0,2.6-0.5,3.7-1.6s1.7-2.4,1.7-4.2
	c0-1.8-0.6-3.2-1.7-4.2c-1.1-1.1-2.4-1.6-3.7-1.6c-1.4,0-2.6,0.5-3.7,1.6C88.5,16,88,17.3,88,19.1z"/>
<path id="n" d="M76.1,9.3c0.2-0.3,0.5-0.6,0.8-0.7c0.4-0.1,0.8-0.2,1.4-0.2c0.6,0,1,0,1.3,0.1c0.3,0.1,0.6,0.2,0.8,0.3
	c0.2,0.1,0.3,0.3,0.4,0.6C80.9,9.8,81,10.3,81,11v16.1c0,0.5,0,0.8,0,1c0,0.2-0.1,0.5-0.3,0.8c-0.3,0.5-1,0.8-2.3,0.8
	c-0.8,0-1.3-0.1-1.6-0.2c-0.3-0.1-0.5-0.3-0.7-0.6c-4.4-5.8-7.2-9.6-8.6-11.4v9.5c0,0.5,0,0.8,0,1c0,0.2-0.1,0.5-0.3,0.8
	c-0.3,0.5-1,0.8-2.3,0.8c-1.2,0-1.9-0.3-2.2-0.8c-0.2-0.3-0.2-0.6-0.3-0.8c0-0.2,0-0.6,0-1V10.9c0-0.7,0.1-1.3,0.3-1.6
	c0.2-0.3,0.5-0.6,0.8-0.7c0.4-0.1,0.8-0.2,1.4-0.2s1,0.1,1.4,0.2c0.3,0.1,0.6,0.2,0.7,0.4c0.1,0.1,0.3,0.3,0.7,0.8
	c4.1,5.5,6.8,9.2,8.2,11v-9.8C75.9,10.2,75.9,9.6,76.1,9.3z"/>
<path id="e" d="M49,24.5H58c0.4,0,0.8,0,1,0c0.2,0,0.5,0.1,0.8,0.3c0.5,0.3,0.8,1,0.8,2.3c0,1.4-0.4,2.1-1.1,2.4
	c-0.3,0.1-0.8,0.2-1.5,0.2H46.5c-1.4,0-2.1-0.4-2.4-1.1c-0.1-0.3-0.2-0.8-0.2-1.5V10.9c0-1,0.2-1.7,0.6-2c0.4-0.4,1.1-0.5,2.1-0.5
	H58c0.4,0,0.8,0,1,0c0.2,0,0.5,0.1,0.8,0.3c0.5,0.3,0.8,1,0.8,2.3c0,1.4-0.4,2.1-1.1,2.4c-0.3,0.1-0.8,0.2-1.5,0.2H49v2.9h5.7
	c0.4,0,0.8,0,1,0c0.2,0,0.5,0.1,0.8,0.3c0.5,0.3,0.8,1,0.8,2.3c0,1.4-0.4,2.1-1.1,2.4c-0.3,0.1-0.8,0.2-1.5,0.2H49V24.5z"/>
<path id="t" d="M24.1,8.4h16.1c0.6,0,1.1,0.1,1.4,0.2s0.5,0.4,0.6,0.7c0.1,0.3,0.1,0.7,0.1,1.2c0,0.5,0,0.9-0.1,1.2
	c-0.1,0.3-0.3,0.5-0.5,0.6c-0.3,0.2-0.8,0.3-1.5,0.3h-5.5v14.6c0,0.4,0,0.8,0,1s-0.1,0.5-0.3,0.7c-0.1,0.3-0.4,0.5-0.8,0.6
	c-0.4,0.1-0.9,0.2-1.5,0.2c-0.6,0-1.1-0.1-1.4-0.2c-0.4-0.1-0.6-0.3-0.8-0.6c-0.1-0.3-0.2-0.5-0.3-0.8c0-0.2,0-0.6,0-1V12.6h-5.6
	c-0.6,0-1.1-0.1-1.4-0.2s-0.5-0.4-0.6-0.7C22,11.4,22,11,22,10.5c0-0.5,0-0.9,0.1-1.2c0.1-0.3,0.3-0.5,0.5-0.6
	C23,8.5,23.5,8.4,24.1,8.4z"/>
<path id="s" d="M7.6,26.7C7.1,26,6.8,25.5,6.8,25c0-0.5,0.4-1.1,1.2-2c0.5-0.5,1-0.7,1.5-0.7c0.5,0,1.3,0.5,2.3,1.5
	c0.3,0.3,0.7,0.6,1.2,0.9c0.5,0.3,1,0.4,1.4,0.4c1.8,0,2.7-0.7,2.7-2.2c0-0.4-0.2-0.8-0.7-1.1c-0.5-0.3-1.1-0.5-1.8-0.7
	c-0.7-0.1-1.5-0.4-2.4-0.7c-0.9-0.3-1.6-0.7-2.4-1.1c-0.7-0.4-1.3-1-1.8-1.9c-0.5-0.9-0.7-1.9-0.7-3.2c0-1.7,0.6-3.2,1.9-4.5
	c1.3-1.3,3-1.9,5.2-1.9c1.2,0,2.2,0.1,3.2,0.4s1.6,0.6,2,0.9l0.7,0.6c0.6,0.6,0.9,1,0.9,1.4c0,0.4-0.2,0.9-0.7,1.6
	c-0.7,1-1.3,1.4-2,1.4c-0.4,0-0.9-0.2-1.5-0.6c-0.1,0-0.2-0.1-0.3-0.3c-0.2-0.2-0.3-0.3-0.4-0.4c-0.4-0.3-0.9-0.4-1.6-0.4
	c-0.6,0-1.2,0.1-1.6,0.4c-0.4,0.3-0.6,0.7-0.6,1.2s0.2,1,0.7,1.3c0.5,0.3,1.1,0.6,1.8,0.7c0.7,0.1,1.5,0.3,2.4,0.5
	c0.9,0.2,1.7,0.5,2.4,0.9c0.7,0.3,1.3,1,1.8,1.8c0.5,0.9,0.7,1.9,0.7,3.2c0,1.3-0.3,2.4-0.8,3.3c-0.5,1-1.2,1.7-2,2.2
	c-1.6,1-3.2,1.5-5,1.5c-0.9,0-1.8-0.1-2.6-0.3s-1.5-0.5-2-0.8c-1-0.6-1.7-1.2-2.1-1.8L7.6,26.7z"/>
</svg>
