999
Inkscape export via OpenSCAD DXF Export
  0
SECTION
  2
HEADER
  9
$ACADVER
  1
AC1014
  9
$HANDSEED
  5
FFFF
  9
$MEASUREMENT
 70
     1
  0
ENDSEC
  0
SECTION
  2
TABLES
  0
TABLE
  2
VPORT
  5
8
330
0
100
AcDbSymbolTable
 70
     4
  0
VPORT
  5
2E
330
8
100
AcDbSymbolTableRecord
100
AcDbViewportTableRecord
  2
*ACTIVE
 70
     0
 10
0.0
 20
0.0
 11
1.0
 21
1.0
 12
210.0
 22
148.5
 13
0.0
 23
0.0
 14
10.0
 24
10.0
 15
10.0
 25
10.0
 16
0.0
 26
0.0
 36
1.0
 17
0.0
 27
0.0
 37
0.0
 40
341.0
 41
1.24
 42
50.0
 43
0.0
 44
0.0
 50
0.0
 51
0.0
 71
     0
 72
   100
 73
     1
 74
     3
 75
     0
 76
     0
 77
     0
 78
     0
  0
ENDTAB
  0
TABLE
  2
LTYPE
  5
5
330
0
100
AcDbSymbolTable
 70
     1
  0
LTYPE
  5
14
330
5
100
AcDbSymbolTableRecord
100
AcDbLinetypeTableRecord
  2
BYBLOCK
 70
     0
  3

 72
    65
 73
     0
 40
0.0
  0
LTYPE
  5
15
330
5
100
AcDbSymbolTableRecord
100
AcDbLinetypeTableRecord
  2
BYLAYER
 70
     0
  3

 72
    65
 73
     0
 40
0.0
  0
LTYPE
  5
16
330
5
100
AcDbSymbolTableRecord
100
AcDbLinetypeTableRecord
  2
CONTINUOUS
 70
     0
  3
Solid line
 72
    65
 73
     0
 40
0.0
  0
ENDTAB
  0
TABLE
0
TABLE
2
LAYER
5
2
330
0
100
AcDbSymbolTable
70
1
0
LAYER
5
10
330
2
100
AcDbSymbolTableRecord
100
AcDbLayerTableRecord
2
Layer_1
70
0
62
7
6
CONTINUOUS
0
ENDTAB
0
ENDSEC
  0
ENDTAB
  0
TABLE
  2
STYLE
  5
3
330
0
100
AcDbSymbolTable
 70
     1
  0
STYLE
  5
11
330
3
100
AcDbSymbolTableRecord
100
AcDbTextStyleTableRecord
  2
STANDARD
 70
     0
 40
0.0
 41
1.0
 50
0.0
 71
     0
 42
2.5
  3
txt
  4

  0
ENDTAB
  0
TABLE
  2
VIEW
  5
6
330
0
100
AcDbSymbolTable
 70
     0
  0
ENDTAB
  0
TABLE
  2
UCS
  5
7
330
0
100
AcDbSymbolTable
 70
     0
  0
ENDTAB
  0
TABLE
  2
APPID
  5
9
330
0
100
AcDbSymbolTable
 70
     2
  0
APPID
  5
12
330
9
100
AcDbSymbolTableRecord
100
AcDbRegAppTableRecord
  2
ACAD
 70
     0
  0
ENDTAB
  0
TABLE
  2
DIMSTYLE
  5
A
330
0
100
AcDbSymbolTable
 70
     1
  0
DIMSTYLE
105
27
330
A
100
AcDbSymbolTableRecord
100
AcDbDimStyleTableRecord
  2
ISO-25
 70
     0
  3

  4

  5

  6

  7

 40
1.0
 41
2.5
 42
0.625
 43
3.75
 44
1.25
 45
0.0
 46
0.0
 47
0.0
 48
0.0
140
2.5
141
2.5
142
0.0
143
0.03937007874016
144
1.0
145
0.0
146
1.0
147
0.625
 71
     0
 72
     0
 73
     0
 74
     0
 75
     0
 76
     0
 77
     1
 78
     8
170
     0
171
     3
172
     1
173
     0
174
     0
175
     0
176
     0
177
     0
178
     0
270
     2
271
     2
272
     2
273
     2
274
     3
340
11
275
     0
280
     0
281
     0
282
     0
283
     0
284
     8
285
     0
286
     0
287
     3
288
     0
  0
ENDTAB
  0
TABLE
  2
BLOCK_RECORD
  5
1
330
0
100
AcDbSymbolTable
 70
     1
  0
BLOCK_RECORD
  5
1F
330
1
100
AcDbSymbolTableRecord
100
AcDbBlockTableRecord
  2
*MODEL_SPACE
  0
BLOCK_RECORD
  5
1B
330
1
100
AcDbSymbolTableRecord
100
AcDbBlockTableRecord
  2
*PAPER_SPACE
  0
ENDTAB
  0
ENDSEC
  0
SECTION
  2
BLOCKS
  0
BLOCK
  5
20
330
1F
100
AcDbEntity
  8
0
100
AcDbBlockBegin
  2
*MODEL_SPACE
 70
     0
 10
0.0
 20
0.0
 30
0.0
  3
*MODEL_SPACE
  1

  0
ENDBLK
  5
21
330
1F
100
AcDbEntity
  8
0
100
AcDbBlockEnd
  0
BLOCK
  5
1C
330
1B
100
AcDbEntity
 67
     1
  8
0
100
AcDbBlockBegin
  2
*PAPER_SPACE
  1

  0
ENDBLK
  5
1D
330
1B
100
AcDbEntity
 67
     1
  8
0
100
AcDbBlockEnd
  0
ENDSEC
  0
SECTION
  2
ENTITIES
0
DIMENSION
5
83
100
AcDbEntity
62
256
370
-1
6
ByLayer
1
total_width
3
Standard
70
0
71
5
72
1
41
1.0
100
AcDbAlignedDimension
13
0.040781
23
0.000000
33
0.0
14
2048.608249
24
0.000000
34
0.0
50
0.000000
100
AcDbRotatedDimension
0
DIMENSION
5
83
100
AcDbEntity
62
256
370
-1
6
ByLayer
1
total_minx
3
Standard
70
0
71
5
72
1
41
1.0
100
AcDbAlignedDimension
13
0.040781
23
0.000000
33
0.0
14
0.000000
24
0.000000
34
0.0
50
0.000000
100
AcDbRotatedDimension
0
DIMENSION
5
83
100
AcDbEntity
62
256
370
-1
6
ByLayer
1
total_maxx
3
Standard
70
0
71
5
72
1
41
1.0
100
AcDbAlignedDimension
13
0.000000
23
0.000000
33
0.0
14
2048.608249
24
0.000000
34
0.0
50
0.000000
100
AcDbRotatedDimension
0
DIMENSION
5
83
100
AcDbEntity
62
256
370
-1
6
ByLayer
1
total_height
3
Standard
70
0
71
5
72
1
41
1.0
100
AcDbAlignedDimension
13
0.000000
23
-247.191389
33
0.0
14
0.000000
24
35.313056
34
0.0
50
90.000000
100
AcDbRotatedDimension
0
DIMENSION
5
83
100
AcDbEntity
62
256
370
-1
6
ByLayer
1
total_miny
3
Standard
70
0
71
5
72
1
41
1.0
100
AcDbAlignedDimension
13
-247.191389
23
0.000000
33
0.0
14
0.000000
24
0.000000
34
0.0
50
0.000000
100
AcDbRotatedDimension
0
DIMENSION
5
83
100
AcDbEntity
62
256
370
-1
6
ByLayer
1
total_maxy
3
Standard
70
0
71
5
72
1
41
1.0
100
AcDbAlignedDimension
13
0.000000
23
0.000000
33
0.0
14
35.313056
24
0.000000
34
0.0
50
0.000000
100
AcDbRotatedDimension
0
DIMENSION
8
Layer_1
5
83
100
AcDbEntity
62
256
370
-1
6
ByLayer
1
Layer_1_width
3
Standard
70
0
71
5
72
1
41
1.0
100
AcDbAlignedDimension
13
0.040781
23
0.000000
33
0.0
14
2048.608249
24
0.000000
34
0.0
50
0.000000
100
AcDbRotatedDimension
0
DIMENSION
8
Layer_1
5
83
100
AcDbEntity
62
256
370
-1
6
ByLayer
1
Layer_1_minx
3
Standard
70
0
71
5
72
1
41
1.0
100
AcDbAlignedDimension
13
0.040781
23
0.000000
33
0.0
14
0.000000
24
0.000000
34
0.0
50
0.000000
100
AcDbRotatedDimension
0
DIMENSION
8
Layer_1
5
83
100
AcDbEntity
62
256
370
-1
6
ByLayer
1
Layer_1_maxx
3
Standard
70
0
71
5
72
1
41
1.0
100
AcDbAlignedDimension
13
0.000000
23
0.000000
33
0.0
14
2048.608249
24
0.000000
34
0.0
50
0.000000
100
AcDbRotatedDimension
0
DIMENSION
8
Layer_1
5
83
100
AcDbEntity
62
256
370
-1
6
ByLayer
1
Layer_1_height
3
Standard
70
0
71
5
72
1
41
1.0
100
AcDbAlignedDimension
13
0.000000
23
-247.191389
33
0.0
14
0.000000
24
35.313056
34
0.0
50
90.000000
100
AcDbRotatedDimension
0
DIMENSION
8
Layer_1
5
83
100
AcDbEntity
62
256
370
-1
6
ByLayer
1
Layer_1_miny
3
Standard
70
0
71
5
72
1
41
1.0
100
AcDbAlignedDimension
13
-247.191389
23
0.000000
33
0.0
14
0.000000
24
0.000000
34
0.0
50
0.000000
100
AcDbRotatedDimension
0
DIMENSION
8
Layer_1
5
83
100
AcDbEntity
62
256
370
-1
6
ByLayer
1
Layer_1_maxy
3
Standard
70
0
71
5
72
1
41
1.0
100
AcDbAlignedDimension
13
0.000000
23
0.000000
33
0.0
14
35.313056
24
0.000000
34
0.0
50
0.000000
100
AcDbRotatedDimension
62
0
0
LWPOLYLINE
100
AcDbPolyline
8
Layer_1
90
164
70
0
10
1236.773978
20
-205.704722
30
0.0
10
1238.379117
20
-203.987687
30
0.0
10
1240.989672
20
-200.858437
30
0.0
10
1248.697867
20
-191.064444
30
0.0
10
1258.840228
20
-177.725035
30
0.0
10
1270.358422
20
-162.242500
30
0.0
10
1281.510610
20
-146.962812
30
0.0
10
1290.995922
20
-134.196667
30
0.0
10
1297.782485
20
-125.293437
30
0.0
10
1300.838422
20
-121.602500
30
0.0
10
1301.262169
20
-121.721356
30
0.0
10
1301.992667
20
-122.275534
30
0.0
10
1304.304464
20
-124.605521
30
0.0
10
1307.634907
20
-128.423789
30
0.0
10
1311.845089
20
-133.561667
30
0.0
10
1322.349047
20
-147.121562
30
0.0
10
1334.705089
20
-163.935833
30
0.0
10
1347.466825
20
-181.252813
30
0.0
10
1358.693978
20
-195.791667
30
0.0
10
1363.351747
20
-201.548008
30
0.0
10
1367.169464
20
-206.044271
30
0.0
10
1369.994993
20
-209.091940
30
0.0
10
1371.676200
20
-210.502500
30
0.0
10
1373.587883
20
-211.422340
30
0.0
10
1375.605814
20
-212.172682
30
0.0
10
1377.710560
20
-212.756006
30
0.0
10
1379.882693
20
-213.174792
30
0.0
10
1382.102781
20
-213.431520
30
0.0
10
1384.351395
20
-213.528672
30
0.0
10
1386.609104
20
-213.468727
30
0.0
10
1388.856478
20
-213.254167
30
0.0
10
1391.074086
20
-212.887471
30
0.0
10
1393.242498
20
-212.371120
30
0.0
10
1395.342283
20
-211.707594
30
0.0
10
1397.354013
20
-210.899375
30
0.0
10
1399.258255
20
-209.948942
30
0.0
10
1401.035579
20
-208.858776
30
0.0
10
1402.666556
20
-207.631357
30
0.0
10
1404.131756
20
-206.269167
30
0.0
10
1411.187311
20
-199.495833
30
0.0
10
1411.187311
20
-107.491389
30
0.0
10
1411.137151
20
-71.464510
30
0.0
10
1411.018019
20
-56.906570
30
0.0
10
1410.786026
20
-44.436771
30
0.0
10
1410.403552
20
-33.893470
30
0.0
10
1409.832975
20
-25.115022
30
0.0
10
1409.036676
20
-17.939784
30
0.0
10
1407.977033
20
-12.206111
30
0.0
10
1407.336702
20
-9.829348
30
0.0
10
1406.616427
20
-7.752361
30
0.0
10
1405.811507
20
-5.954942
30
0.0
10
1404.917237
20
-4.416888
30
0.0
10
1403.928917
20
-3.117992
30
0.0
10
1402.841843
20
-2.038050
30
0.0
10
1401.651313
20
-1.156854
30
0.0
10
1400.352624
20
-0.454201
30
0.0
10
1398.941073
20
0.090115
30
0.0
10
1397.411959
20
0.496300
30
0.0
10
1393.982229
20
0.975100
30
0.0
10
1390.025812
20
1.143841
30
0.0
10
1385.505089
20
1.164167
30
0.0
10
1377.769885
20
1.027465
30
0.0
10
1374.633814
20
0.717682
30
0.0
10
1371.936374
20
0.123472
30
0.0
10
1369.640769
20
-0.847769
30
0.0
10
1368.632157
20
-1.503715
30
0.0
10
1367.710206
20
-2.288646
30
0.0
10
1366.870318
20
-3.214136
30
0.0
10
1366.107892
20
-4.291762
30
0.0
10
1364.797033
20
-6.949722
30
0.0
10
1363.740836
20
-10.355130
30
0.0
10
1362.902506
20
-14.600590
30
0.0
10
1362.245251
20
-19.778707
30
0.0
10
1361.732276
20
-25.982083
30
0.0
10
1360.991994
20
-41.835035
30
0.0
10
1360.387311
20
-62.900278
30
0.0
10
1358.976200
20
-118.780278
30
0.0
10
1338.656200
20
-88.864722
30
0.0
10
1332.942165
20
-80.533792
30
0.0
10
1327.710167
20
-73.321554
30
0.0
10
1322.886620
20
-67.228834
30
0.0
10
1318.397936
20
-62.256458
30
0.0
10
1316.256172
20
-60.190659
30
0.0
10
1314.170528
20
-58.405255
30
0.0
10
1312.131807
20
-56.900351
30
0.0
10
1310.130809
20
-55.676050
30
0.0
10
1308.158337
20
-54.732456
30
0.0
10
1306.205192
20
-54.069671
30
0.0
10
1304.262175
20
-53.687800
30
0.0
10
1302.320089
20
-53.586944
30
0.0
10
1300.369734
20
-53.767209
30
0.0
10
1298.401913
20
-54.228697
30
0.0
10
1296.407427
20
-54.971511
30
0.0
10
1294.377077
20
-55.995755
30
0.0
10
1292.301665
20
-57.301533
30
0.0
10
1290.171993
20
-58.888946
30
0.0
10
1287.978863
20
-60.758100
30
0.0
10
1285.713075
20
-62.909097
30
0.0
10
1280.926735
20
-68.057035
30
0.0
10
1275.739386
20
-74.333585
30
0.0
10
1270.077440
20
-81.739576
30
0.0
10
1263.867311
20
-90.275833
30
0.0
10
1241.853978
20
-120.755833
30
0.0
10
1241.853978
20
-65.722500
30
0.0
10
1241.782320
20
-44.025013
30
0.0
10
1241.641898
20
-35.182349
30
0.0
10
1241.386547
20
-27.556354
30
0.0
10
1240.982369
20
-21.056493
30
0.0
10
1240.395462
20
-15.592227
30
0.0
10
1239.591928
20
-11.073019
30
0.0
10
1238.537867
20
-7.408333
30
0.0
10
1237.199378
20
-4.507632
30
0.0
10
1236.412880
20
-3.315482
30
0.0
10
1235.542563
20
-2.280378
30
0.0
10
1234.584189
20
-1.391000
30
0.0
10
1233.533521
20
-0.636034
30
0.0
10
1231.138353
20
0.515937
30
0.0
10
1228.323159
20
1.266073
30
0.0
10
1225.054039
20
1.704909
30
0.0
10
1221.297093
20
1.922983
30
0.0
10
1217.018422
20
2.010833
30
0.0
10
1208.669164
20
2.069262
30
0.0
10
1205.314951
20
1.816117
30
0.0
10
1203.825041
20
1.546968
30
0.0
10
1202.453110
20
1.155347
30
0.0
10
1201.194039
20
0.620686
30
0.0
10
1200.042714
20
-0.077584
30
0.0
10
1198.994019
20
-0.960028
30
0.0
10
1198.042836
20
-2.047214
30
0.0
10
1197.184051
20
-3.359709
30
0.0
10
1196.412548
20
-4.918081
30
0.0
10
1195.723210
20
-6.742896
30
0.0
10
1195.110922
20
-8.854722
30
0.0
10
1194.097031
20
-14.021676
30
0.0
10
1193.329946
20
-20.583481
30
0.0
10
1192.768740
20
-28.704673
30
0.0
10
1192.372485
20
-38.549792
30
0.0
10
1191.911118
20
-64.069957
30
0.0
10
1191.618422
20
-98.460278
30
0.0
10
1191.393526
20
-134.430382
30
0.0
10
1191.512589
20
-165.241111
30
0.0
10
1191.896235
20
-187.638090
30
0.0
10
1192.162472
20
-194.664431
30
0.0
10
1192.465089
20
-198.366944
30
0.0
10
1192.969451
20
-200.577869
30
0.0
10
1193.642485
20
-202.560590
30
0.0
10
1194.494112
20
-204.325030
30
0.0
10
1195.534256
20
-205.881111
30
0.0
10
1196.772836
20
-207.238754
30
0.0
10
1198.219776
20
-208.407882
30
0.0
10
1199.884998
20
-209.398416
30
0.0
10
1201.778422
20
-210.220278
30
0.0
10
1203.727933
20
-210.839293
30
0.0
10
1205.851903
20
-211.322708
30
0.0
10
1210.500853
20
-211.895972
30
0.0
10
1215.480532
20
-211.966528
30
0.0
10
1220.546200
20
-211.560833
30
0.0
10
1225.453118
20
-210.705347
30
0.0
10
1229.956547
20
-209.426528
30
0.0
10
1231.980472
20
-208.636636
30
0.0
10
1233.811747
20
-207.750833
30
0.0
10
1235.419780
20
-206.772426
30
0.0
10
1236.773978
20
-205.704722
30
0.0
10
1236.773978
20
-205.704722
30
0.0
62
0
0
LWPOLYLINE
100
AcDbPolyline
8
Layer_1
90
87
70
0
10
1179.765089
20
-242.111389
30
0.0
10
1177.441716
20
-240.699727
30
0.0
10
1175.148110
20
-239.020174
30
0.0
10
1172.914034
20
-237.095881
30
0.0
10
1170.769256
20
-234.950000
30
0.0
10
1168.743539
20
-232.605681
30
0.0
10
1166.866651
20
-230.086076
30
0.0
10
1165.168357
20
-227.414336
30
0.0
10
1163.678422
20
-224.613611
30
0.0
10
1161.535848
20
-220.240820
30
0.0
10
1160.668994
20
-218.021145
30
0.0
10
1159.925749
20
-215.560451
30
0.0
10
1159.296605
20
-212.694614
30
0.0
10
1158.772055
20
-209.259510
30
0.0
10
1158.342589
20
-205.091013
30
0.0
10
1157.998700
20
-200.025000
30
0.0
10
1157.529616
20
-186.543928
30
0.0
10
1157.288735
20
-167.503299
30
0.0
10
1157.187311
20
-107.491389
30
0.0
10
1157.390158
20
-65.061042
30
0.0
10
1157.963422
20
-29.880278
30
0.0
10
1158.372424
20
-15.917995
30
0.0
10
1158.854186
20
-4.859514
30
0.0
10
1159.402094
20
2.931363
30
0.0
10
1159.698786
20
5.487762
30
0.0
10
1160.009533
20
7.090833
30
0.0
10
1160.715089
20
9.221832
30
0.0
10
1161.738144
20
11.544653
30
0.0
10
1163.025783
20
13.986536
30
0.0
10
1164.525089
20
16.474722
30
0.0
10
1167.947033
20
21.298958
30
0.0
10
1169.763839
20
23.489488
30
0.0
10
1171.580644
20
25.435278
30
0.0
10
1180.047311
20
33.619722
30
0.0
10
1298.298422
20
34.466389
30
0.0
10
1416.549533
20
35.313056
30
0.0
10
1426.427311
20
26.281944
30
0.0
10
1428.547836
20
24.323477
30
0.0
10
1430.638596
20
22.097118
30
0.0
10
1432.643366
20
19.678937
30
0.0
10
1434.505922
20
17.145000
30
0.0
10
1436.170041
20
14.571376
30
0.0
10
1437.579499
20
12.034132
30
0.0
10
1438.678071
20
9.609336
30
0.0
10
1439.409533
20
7.373056
30
0.0
10
1439.766652
20
5.703631
30
0.0
10
1440.096899
20
3.238390
30
0.0
10
1440.675124
20
-4.061354
30
0.0
10
1441.140901
20
-14.489796
30
0.0
10
1441.490922
20
-28.010556
30
0.0
10
1441.721881
20
-44.587253
30
0.0
10
1441.830471
20
-64.183507
30
0.0
10
1441.667311
20
-112.289167
30
0.0
10
1441.045540
20
-173.928264
30
0.0
10
1440.640397
20
-193.598932
30
0.0
10
1440.079811
20
-207.468611
30
0.0
10
1439.294329
20
-216.760998
30
0.0
10
1438.795548
20
-220.073113
30
0.0
10
1438.214499
20
-222.699792
30
0.0
10
1437.542498
20
-224.793996
30
0.0
10
1436.770866
20
-226.508689
30
0.0
10
1435.890920
20
-227.996833
30
0.0
10
1434.893978
20
-229.411389
30
0.0
10
1432.566540
20
-232.494612
30
0.0
10
1430.323852
20
-235.199149
30
0.0
10
1427.972850
20
-237.549807
30
0.0
10
1425.320471
20
-239.571389
30
0.0
10
1422.173652
20
-241.288700
30
0.0
10
1418.339329
20
-242.726545
30
0.0
10
1413.624441
20
-243.909729
30
0.0
10
1407.835922
20
-244.863056
30
0.0
10
1400.780711
20
-245.611330
30
0.0
10
1392.265744
20
-246.179358
30
0.0
10
1382.097958
20
-246.591942
30
0.0
10
1370.084290
20
-246.873889
30
0.0
10
1339.747055
20
-247.145087
30
0.0
10
1299.709533
20
-247.191389
30
0.0
10
1239.613839
20
-247.072326
30
0.0
10
1219.739221
20
-246.849084
30
0.0
10
1205.235644
20
-246.450556
30
0.0
10
1195.044776
20
-245.827131
30
0.0
10
1191.235879
20
-245.415580
30
0.0
10
1188.108283
20
-244.929201
30
0.0
10
1185.529698
20
-244.361794
30
0.0
10
1183.367832
20
-243.707157
30
0.0
10
1181.490393
20
-242.959089
30
0.0
10
1179.765089
20
-242.111389
30
0.0
62
0
0
LWPOLYLINE
100
AcDbPolyline
8
Layer_1
90
122
70
0
10
1647.125089
20
-204.858056
30
0.0
10
1651.171913
20
-202.767115
30
0.0
10
1655.108409
20
-200.519647
30
0.0
10
1658.931733
20
-198.121180
30
0.0
10
1662.639043
20
-195.577244
30
0.0
10
1666.227497
20
-192.893368
30
0.0
10
1669.694254
20
-190.075082
30
0.0
10
1673.036470
20
-187.127915
30
0.0
10
1676.251304
20
-184.057396
30
0.0
10
1679.335913
20
-180.869055
30
0.0
10
1682.287456
20
-177.568421
30
0.0
10
1685.103089
20
-174.161023
30
0.0
10
1687.779972
20
-170.652391
30
0.0
10
1690.315261
20
-167.048055
30
0.0
10
1692.706114
20
-163.353543
30
0.0
10
1694.949689
20
-159.574386
30
0.0
10
1697.043144
20
-155.716111
30
0.0
10
1698.983638
20
-151.784249
30
0.0
10
1700.768326
20
-147.784330
30
0.0
10
1702.394368
20
-143.721882
30
0.0
10
1703.858921
20
-139.602435
30
0.0
10
1705.159143
20
-135.431518
30
0.0
10
1706.292192
20
-131.214661
30
0.0
10
1707.255226
20
-126.957393
30
0.0
10
1708.045401
20
-122.665243
30
0.0
10
1708.659877
20
-118.343741
30
0.0
10
1709.095811
20
-113.998416
30
0.0
10
1709.350360
20
-109.634798
30
0.0
10
1709.420684
20
-105.258416
30
0.0
10
1709.303938
20
-100.874799
30
0.0
10
1708.997281
20
-96.489476
30
0.0
10
1708.497872
20
-92.107978
30
0.0
10
1707.802867
20
-87.735833
30
0.0
10
1706.302596
20
-80.782459
30
0.0
10
1704.452580
20
-74.005612
30
0.0
10
1702.260259
20
-67.416453
30
0.0
10
1699.733075
20
-61.026146
30
0.0
10
1696.878469
20
-54.845851
30
0.0
10
1693.703882
20
-48.886732
30
0.0
10
1690.216757
20
-43.159950
30
0.0
10
1686.424533
20
-37.676667
30
0.0
10
1682.334654
20
-32.448045
30
0.0
10
1677.954559
20
-27.485247
30
0.0
10
1673.291692
20
-22.799435
30
0.0
10
1668.353492
20
-18.401771
30
0.0
10
1663.147401
20
-14.303416
30
0.0
10
1657.680861
20
-10.515534
30
0.0
10
1651.961314
20
-7.049285
30
0.0
10
1645.996200
20
-3.915833
30
0.0
10
1640.335770
20
-1.165820
30
0.0
10
1635.426096
20
0.992187
30
0.0
10
1630.959598
20
2.627643
30
0.0
10
1626.628700
20
3.810000
30
0.0
10
1622.125822
20
4.608711
30
0.0
10
1617.143387
20
5.093229
30
0.0
10
1611.373817
20
5.333008
30
0.0
10
1604.509533
20
5.397500
30
0.0
10
1599.371173
20
5.324051
30
0.0
10
1594.425050
20
5.100946
30
0.0
10
1589.658347
20
4.724053
30
0.0
10
1585.058249
20
4.189236
30
0.0
10
1580.611939
20
3.492362
30
0.0
10
1576.306604
20
2.629297
30
0.0
10
1572.129425
20
1.595906
30
0.0
10
1568.067589
20
0.388056
30
0.0
10
1564.108278
20
-0.998389
30
0.0
10
1560.238678
20
-2.567561
30
0.0
10
1556.445973
20
-4.323595
30
0.0
10
1552.717346
20
-6.270625
30
0.0
10
1549.039982
20
-8.412785
30
0.0
10
1545.401065
20
-10.754210
30
0.0
10
1541.787780
20
-13.299033
30
0.0
10
1538.187311
20
-16.051389
30
0.0
10
1532.990652
20
-20.447055
30
0.0
10
1528.142446
20
-25.102344
30
0.0
10
1523.642230
20
-29.999065
30
0.0
10
1519.489538
20
-35.119028
30
0.0
10
1515.683904
20
-40.444043
30
0.0
10
1512.224865
20
-45.955920
30
0.0
10
1509.111954
20
-51.636469
30
0.0
10
1506.344707
20
-57.467500
30
0.0
10
1503.922658
20
-63.430822
30
0.0
10
1501.845343
20
-69.508247
30
0.0
10
1500.112297
20
-75.681582
30
0.0
10
1498.723053
20
-81.932639
30
0.0
10
1497.677148
20
-88.243227
30
0.0
10
1496.974116
20
-94.595156
30
0.0
10
1496.613492
20
-100.970237
30
0.0
10
1496.594811
20
-107.350278
30
0.0
10
1496.917608
20
-113.717090
30
0.0
10
1497.581418
20
-120.052483
30
0.0
10
1498.585775
20
-126.338266
30
0.0
10
1499.930215
20
-132.556250
30
0.0
10
1501.614272
20
-138.688244
30
0.0
10
1503.637482
20
-144.716059
30
0.0
10
1505.999379
20
-150.621504
30
0.0
10
1508.699499
20
-156.386389
30
0.0
10
1511.737375
20
-161.992524
30
0.0
10
1515.112544
20
-167.421719
30
0.0
10
1518.824540
20
-172.655783
30
0.0
10
1522.872897
20
-177.676528
30
0.0
10
1527.257151
20
-182.465762
30
0.0
10
1531.976837
20
-187.005295
30
0.0
10
1537.031490
20
-191.276938
30
0.0
10
1542.420644
20
-195.262500
30
0.0
10
1548.842716
20
-199.419628
30
0.0
10
1555.300341
20
-203.106293
30
0.0
10
1561.789385
20
-206.321670
30
0.0
10
1568.305714
20
-209.064931
30
0.0
10
1574.845194
20
-211.335248
30
0.0
10
1581.403691
20
-213.131797
30
0.0
10
1587.977071
20
-214.453749
30
0.0
10
1594.561200
20
-215.300278
30
0.0
10
1601.151943
20
-215.670557
30
0.0
10
1607.745167
20
-215.563759
30
0.0
10
1614.336737
20
-214.979057
30
0.0
10
1620.922519
20
-213.915625
30
0.0
10
1627.498380
20
-212.372636
30
0.0
10
1634.060184
20
-210.349262
30
0.0
10
1640.603799
20
-207.844678
30
0.0
10
1647.125089
20
-204.858056
30
0.0
10
1647.125089
20
-204.858056
30
0.0
62
0
0
LWPOLYLINE
100
AcDbPolyline
8
Layer_1
90
94
70
0
10
1484.565089
20
-242.111389
30
0.0
10
1482.473227
20
-240.983602
30
0.0
10
1480.265610
20
-239.544931
30
0.0
10
1478.011690
20
-237.854905
30
0.0
10
1475.780922
20
-235.973056
30
0.0
10
1473.642758
20
-233.958915
30
0.0
10
1471.666651
20
-231.872014
30
0.0
10
1469.922055
20
-229.771884
30
0.0
10
1468.478422
20
-227.718056
30
0.0
10
1466.335848
20
-224.322018
30
0.0
10
1465.468994
20
-222.512172
30
0.0
10
1464.725749
20
-220.393507
30
0.0
10
1464.096605
20
-217.790324
30
0.0
10
1463.572055
20
-214.526923
30
0.0
10
1463.142589
20
-210.427604
30
0.0
10
1462.798700
20
-205.316667
30
0.0
10
1462.329616
20
-191.357140
30
0.0
10
1462.088735
20
-171.242743
30
0.0
10
1461.987311
20
-106.926944
30
0.0
10
1462.034716
20
-66.042205
30
0.0
10
1462.313631
20
-35.066111
30
0.0
10
1462.603983
20
-22.810115
30
0.0
10
1463.029108
20
-12.450851
30
0.0
10
1463.614636
20
-3.794842
30
0.0
10
1464.386200
20
3.351389
30
0.0
10
1465.369430
20
9.181317
30
0.0
10
1466.589959
20
13.888420
30
0.0
10
1468.073417
20
17.666174
30
0.0
10
1469.845436
20
20.708056
30
0.0
10
1471.931648
20
23.207541
30
0.0
10
1474.357684
20
25.358108
30
0.0
10
1477.149176
20
27.353231
30
0.0
10
1480.331756
20
29.386389
30
0.0
10
1481.955360
20
30.333446
30
0.0
10
1483.650072
20
31.168468
30
0.0
10
1485.572986
20
31.898484
30
0.0
10
1487.881200
20
32.530521
30
0.0
10
1490.731810
20
33.071608
30
0.0
10
1494.281912
20
33.528772
30
0.0
10
1504.108978
20
34.219444
30
0.0
10
1518.619169
20
34.658763
30
0.0
10
1539.069256
20
34.902951
30
0.0
10
1602.816200
20
35.030833
30
0.0
10
1644.186009
20
34.996107
30
0.0
10
1675.382589
20
34.753021
30
0.0
10
1687.666146
20
34.488231
30
0.0
10
1698.006669
20
34.093216
30
0.0
10
1706.604249
20
33.541932
30
0.0
10
1713.658978
20
32.808333
30
0.0
10
1719.370946
20
31.866375
30
0.0
10
1723.940245
20
30.690013
30
0.0
10
1727.566966
20
29.253201
30
0.0
10
1729.089388
20
28.428988
30
0.0
10
1730.451200
20
27.529896
30
0.0
10
1732.793038
20
25.494051
30
0.0
10
1734.792572
20
23.119622
30
0.0
10
1736.649891
20
20.380565
30
0.0
10
1738.565089
20
17.250833
30
0.0
10
1739.512146
20
15.660991
30
0.0
10
1740.347168
20
13.964488
30
0.0
10
1741.077184
20
12.008363
30
0.0
10
1741.709221
20
9.639653
30
0.0
10
1742.250308
20
6.705396
30
0.0
10
1742.707472
20
3.052630
30
0.0
10
1743.398144
20
-7.020278
30
0.0
10
1743.837463
20
-21.802769
30
0.0
10
1744.081651
20
-42.518542
30
0.0
10
1744.209533
20
-106.644722
30
0.0
10
1744.209533
20
-221.226944
30
0.0
10
1736.871756
20
-230.258056
30
0.0
10
1734.278219
20
-233.285261
30
0.0
10
1731.866170
20
-235.928407
30
0.0
10
1729.433450
20
-238.213539
30
0.0
10
1726.777901
20
-240.166701
30
0.0
10
1723.697366
20
-241.813939
30
0.0
10
1719.989685
20
-243.181298
30
0.0
10
1715.452701
20
-244.294822
30
0.0
10
1709.884256
20
-245.180556
30
0.0
10
1703.082190
20
-245.864545
30
0.0
10
1694.844347
20
-246.372834
30
0.0
10
1684.968567
20
-246.731469
30
0.0
10
1673.252693
20
-246.966493
30
0.0
10
1643.492029
20
-247.169891
30
0.0
10
1603.945089
20
-247.191389
30
0.0
10
1545.009151
20
-247.032639
30
0.0
10
1525.269581
20
-246.774670
30
0.0
10
1510.705922
20
-246.344722
30
0.0
10
1500.335909
20
-245.703108
30
0.0
10
1496.416562
20
-245.290523
30
0.0
10
1493.177276
20
-244.810139
30
0.0
10
1490.495270
20
-244.256994
30
0.0
10
1488.247758
20
-243.626128
30
0.0
10
1486.311959
20
-242.912580
30
0.0
10
1484.565089
20
-242.111389
30
0.0
62
0
0
LWPOLYLINE
100
AcDbPolyline
8
Layer_1
90
90
70
0
10
1588.140644
20
-159.702500
30
0.0
10
1583.939213
20
-158.200783
30
0.0
10
1579.915961
20
-156.353867
30
0.0
10
1576.083706
20
-154.180356
30
0.0
10
1572.455262
20
-151.698854
30
0.0
10
1569.043447
20
-148.927964
30
0.0
10
1565.861074
20
-145.886289
30
0.0
10
1562.920961
20
-142.592433
30
0.0
10
1560.235922
20
-139.065000
30
0.0
10
1557.818774
20
-135.322593
30
0.0
10
1555.682333
20
-131.383815
30
0.0
10
1553.839413
20
-127.267271
30
0.0
10
1552.302832
20
-122.991563
30
0.0
10
1551.085404
20
-118.575295
30
0.0
10
1550.199946
20
-114.037070
30
0.0
10
1549.659272
20
-109.395493
30
0.0
10
1549.476200
20
-104.669167
30
0.0
10
1549.652081
20
-99.804425
30
0.0
10
1550.168871
20
-95.110060
30
0.0
10
1551.010292
20
-90.592739
30
0.0
10
1552.160067
20
-86.259128
30
0.0
10
1553.601917
20
-82.115892
30
0.0
10
1555.319564
20
-78.169699
30
0.0
10
1557.296730
20
-74.427214
30
0.0
10
1559.517137
20
-70.895104
30
0.0
10
1561.964507
20
-67.580035
30
0.0
10
1564.622562
20
-64.488674
30
0.0
10
1567.475024
20
-61.627685
30
0.0
10
1570.505614
20
-59.003737
30
0.0
10
1573.698055
20
-56.623495
30
0.0
10
1577.036068
20
-54.493625
30
0.0
10
1580.503376
20
-52.620793
30
0.0
10
1584.083700
20
-51.011667
30
0.0
10
1587.760762
20
-49.672911
30
0.0
10
1591.518285
20
-48.611193
30
0.0
10
1595.339990
20
-47.833179
30
0.0
10
1599.209598
20
-47.345534
30
0.0
10
1603.110833
20
-47.154925
30
0.0
10
1607.027416
20
-47.268019
30
0.0
10
1610.943068
20
-47.691482
30
0.0
10
1614.841513
20
-48.431979
30
0.0
10
1618.706470
20
-49.496178
30
0.0
10
1622.521664
20
-50.890744
30
0.0
10
1626.270815
20
-52.622344
30
0.0
10
1629.937645
20
-54.697643
30
0.0
10
1633.505877
20
-57.123309
30
0.0
10
1636.959232
20
-59.906007
30
0.0
10
1640.281433
20
-63.052405
30
0.0
10
1643.456200
20
-66.569167
30
0.0
10
1645.409380
20
-69.029223
30
0.0
10
1647.195231
20
-71.588395
30
0.0
10
1648.815098
20
-74.238311
30
0.0
10
1650.270323
20
-76.970599
30
0.0
10
1651.562251
20
-79.776888
30
0.0
10
1652.692225
20
-82.648805
30
0.0
10
1653.661589
20
-85.577981
30
0.0
10
1654.471686
20
-88.556042
30
0.0
10
1655.123860
20
-91.574617
30
0.0
10
1655.619454
20
-94.625335
30
0.0
10
1655.959812
20
-97.699825
30
0.0
10
1656.146278
20
-100.789714
30
0.0
10
1656.180195
20
-103.886630
30
0.0
10
1656.062907
20
-106.982204
30
0.0
10
1655.380089
20
-113.135833
30
0.0
10
1654.817246
20
-116.177146
30
0.0
10
1654.108573
20
-119.183630
30
0.0
10
1653.255412
20
-122.146911
30
0.0
10
1652.259108
20
-125.058620
30
0.0
10
1651.121003
20
-127.910384
30
0.0
10
1649.842442
20
-130.693831
30
0.0
10
1648.424768
20
-133.400591
30
0.0
10
1646.869325
20
-136.022292
30
0.0
10
1645.177456
20
-138.550561
30
0.0
10
1643.350504
20
-140.977028
30
0.0
10
1641.389815
20
-143.293321
30
0.0
10
1639.296730
20
-145.491068
30
0.0
10
1637.072593
20
-147.561897
30
0.0
10
1634.718749
20
-149.497438
30
0.0
10
1632.236540
20
-151.289318
30
0.0
10
1629.627311
20
-152.929167
30
0.0
10
1624.372025
20
-155.732096
30
0.0
10
1619.017519
20
-157.995937
30
0.0
10
1613.623327
20
-159.710768
30
0.0
10
1608.248978
20
-160.866667
30
0.0
10
1602.954004
20
-161.453711
30
0.0
10
1597.797936
20
-161.461979
30
0.0
10
1595.290596
20
-161.245972
30
0.0
10
1592.840306
20
-160.881549
30
0.0
10
1590.454508
20
-160.367472
30
0.0
10
1588.140644
20
-159.702500
30
0.0
62
0
0
LWPOLYLINE
100
AcDbPolyline
8
Layer_1
90
111
70
0
10
1923.420644
20
-208.809167
30
0.0
10
1929.642461
20
-207.016778
30
0.0
10
1935.657417
20
-204.927715
30
0.0
10
1941.460396
20
-202.552882
30
0.0
10
1947.046282
20
-199.903181
30
0.0
10
1952.409960
20
-196.989518
30
0.0
10
1957.546313
20
-193.822795
30
0.0
10
1962.450226
20
-190.413916
30
0.0
10
1967.116582
20
-186.773785
30
0.0
10
1971.540265
20
-182.913305
30
0.0
10
1975.716160
20
-178.843382
30
0.0
10
1979.639151
20
-174.574917
30
0.0
10
1983.304121
20
-170.118815
30
0.0
10
1986.705955
20
-165.485980
30
0.0
10
1989.839536
20
-160.687315
30
0.0
10
1992.699749
20
-155.733724
30
0.0
10
1995.281478
20
-150.636111
30
0.0
10
1997.579606
20
-145.405380
30
0.0
10
1999.589018
20
-140.052433
30
0.0
10
2001.304599
20
-134.588176
30
0.0
10
2002.721230
20
-129.023511
30
0.0
10
2003.833798
20
-123.369343
30
0.0
10
2004.637186
20
-117.636575
30
0.0
10
2005.126277
20
-111.836111
30
0.0
10
2005.295957
20
-105.978854
30
0.0
10
2005.141109
20
-100.075709
30
0.0
10
2004.656616
20
-94.137579
30
0.0
10
2003.837364
20
-88.175367
30
0.0
10
2002.678236
20
-82.199978
30
0.0
10
2001.174116
20
-76.222316
30
0.0
10
1999.319888
20
-70.253283
30
0.0
10
1997.110436
20
-64.303784
30
0.0
10
1994.540644
20
-58.384722
30
0.0
10
1992.903673
20
-55.160251
30
0.0
10
1990.877268
20
-51.758012
30
0.0
10
1988.501943
20
-48.218521
30
0.0
10
1985.818214
20
-44.582292
30
0.0
10
1982.866594
20
-40.889838
30
0.0
10
1979.687598
20
-37.181675
30
0.0
10
1976.321739
20
-33.498317
30
0.0
10
1972.809533
20
-29.880278
30
0.0
10
1969.191494
20
-26.368072
30
0.0
10
1965.508136
20
-23.002214
30
0.0
10
1961.799973
20
-19.823217
30
0.0
10
1958.107519
20
-16.871597
30
0.0
10
1954.471290
20
-14.187868
30
0.0
10
1950.931799
20
-11.812543
30
0.0
10
1947.529560
20
-9.786138
30
0.0
10
1944.305089
20
-8.149167
30
0.0
10
1940.564060
20
-6.515433
30
0.0
10
1936.641543
20
-5.001176
30
0.0
10
1932.534645
20
-3.606808
30
0.0
10
1928.240471
20
-2.332743
30
0.0
10
1923.756128
20
-1.179394
30
0.0
10
1919.078722
20
-0.147174
30
0.0
10
1914.205359
20
0.763502
30
0.0
10
1909.133144
20
1.552222
30
0.0
10
1898.380588
20
2.762140
30
0.0
10
1886.797901
20
3.479271
30
0.0
10
1874.361934
20
3.700308
30
0.0
10
1861.049533
20
3.421944
30
0.0
10
1845.650232
20
3.127044
30
0.0
10
1839.537048
20
2.853297
30
0.0
10
1834.375124
20
2.226910
30
0.0
10
1832.125950
20
1.718560
30
0.0
10
1830.084671
20
1.046551
30
0.0
10
1828.241312
20
0.185716
30
0.0
10
1826.585901
20
-0.889110
30
0.0
10
1825.108463
20
-2.203095
30
0.0
10
1823.799025
20
-3.781406
30
0.0
10
1822.647614
20
-5.649207
30
0.0
10
1821.644256
20
-7.831667
30
0.0
10
1820.778977
20
-10.353950
30
0.0
10
1820.041804
20
-13.241225
30
0.0
10
1819.422763
20
-16.518656
30
0.0
10
1818.911881
20
-20.211411
30
0.0
10
1818.174700
20
-28.943556
30
0.0
10
1817.750471
20
-39.638993
30
0.0
10
1817.559406
20
-52.499052
30
0.0
10
1817.521716
20
-67.725065
30
0.0
10
1817.587311
20
-106.080278
30
0.0
10
1817.483683
20
-144.129566
30
0.0
10
1817.505456
20
-159.209438
30
0.0
10
1817.710783
20
-171.926250
30
0.0
10
1818.200538
20
-182.480093
30
0.0
10
1818.583598
20
-187.008430
30
0.0
10
1819.075592
20
-191.071059
30
0.0
10
1819.689129
20
-194.692991
30
0.0
10
1820.436818
20
-197.899238
30
0.0
10
1821.331269
20
-200.714811
30
0.0
10
1822.385089
20
-203.164722
30
0.0
10
1823.610888
20
-205.273982
30
0.0
10
1825.021276
20
-207.067602
30
0.0
10
1826.628861
20
-208.570594
30
0.0
10
1828.446252
20
-209.807969
30
0.0
10
1830.486059
20
-210.804738
30
0.0
10
1832.760890
20
-211.585914
30
0.0
10
1835.283354
20
-212.176506
30
0.0
10
1838.066061
20
-212.601528
30
0.0
10
1844.462639
20
-213.054902
30
0.0
10
1852.051495
20
-213.146128
30
0.0
10
1871.209533
20
-213.042500
30
0.0
10
1879.807940
20
-213.068958
30
0.0
10
1887.820957
20
-212.936667
30
0.0
10
1895.245276
20
-212.645625
30
0.0
10
1902.077589
20
-212.195833
30
0.0
10
1908.314590
20
-211.587292
30
0.0
10
1913.952971
20
-210.820000
30
0.0
10
1918.989425
20
-209.893958
30
0.0
10
1923.420644
20
-208.809167
30
0.0
10
1923.420644
20
-208.809167
30
0.0
62
0
0
LWPOLYLINE
100
AcDbPolyline
8
Layer_1
90
87
70
0
10
1786.542867
20
-242.111389
30
0.0
10
1784.219494
20
-240.699727
30
0.0
10
1781.925888
20
-239.020174
30
0.0
10
1779.691812
20
-237.095881
30
0.0
10
1777.547033
20
-234.950000
30
0.0
10
1775.521317
20
-232.605681
30
0.0
10
1773.644429
20
-230.086076
30
0.0
10
1771.946135
20
-227.414336
30
0.0
10
1770.456200
20
-224.613611
30
0.0
10
1768.313626
20
-220.240820
30
0.0
10
1767.446771
20
-218.021145
30
0.0
10
1766.703526
20
-215.560451
30
0.0
10
1766.074383
20
-212.694614
30
0.0
10
1765.549833
20
-209.259510
30
0.0
10
1765.120367
20
-205.091013
30
0.0
10
1764.776478
20
-200.025000
30
0.0
10
1764.307394
20
-186.543928
30
0.0
10
1764.066513
20
-167.503299
30
0.0
10
1763.965089
20
-107.491389
30
0.0
10
1764.167936
20
-65.061042
30
0.0
10
1764.741200
20
-29.880278
30
0.0
10
1765.150202
20
-15.917995
30
0.0
10
1765.631964
20
-4.859514
30
0.0
10
1766.179872
20
2.931363
30
0.0
10
1766.476563
20
5.487762
30
0.0
10
1766.787311
20
7.090833
30
0.0
10
1767.492867
20
9.221832
30
0.0
10
1768.515922
20
11.544653
30
0.0
10
1769.803561
20
13.986536
30
0.0
10
1771.302867
20
16.474722
30
0.0
10
1774.724811
20
21.298958
30
0.0
10
1776.541617
20
23.489488
30
0.0
10
1778.358422
20
25.435278
30
0.0
10
1786.825089
20
33.619722
30
0.0
10
1905.076200
20
34.466389
30
0.0
10
2023.327311
20
35.313056
30
0.0
10
2033.205089
20
26.281944
30
0.0
10
2035.325614
20
24.323477
30
0.0
10
2037.416374
20
22.097118
30
0.0
10
2039.421144
20
19.678937
30
0.0
10
2041.283700
20
17.145000
30
0.0
10
2042.947819
20
14.571376
30
0.0
10
2044.357276
20
12.034132
30
0.0
10
2045.455848
20
9.609336
30
0.0
10
2046.187311
20
7.373056
30
0.0
10
2046.544430
20
5.703631
30
0.0
10
2046.874677
20
3.238390
30
0.0
10
2047.452901
20
-4.061354
30
0.0
10
2047.918678
20
-14.489796
30
0.0
10
2048.268700
20
-28.010556
30
0.0
10
2048.499659
20
-44.587253
30
0.0
10
2048.608249
20
-64.183507
30
0.0
10
2048.445089
20
-112.289167
30
0.0
10
2047.823318
20
-173.928264
30
0.0
10
2047.418175
20
-193.598932
30
0.0
10
2046.857589
20
-207.468611
30
0.0
10
2046.072107
20
-216.760998
30
0.0
10
2045.573326
20
-220.073113
30
0.0
10
2044.992276
20
-222.699792
30
0.0
10
2044.320276
20
-224.793996
30
0.0
10
2043.548644
20
-226.508689
30
0.0
10
2042.668697
20
-227.996833
30
0.0
10
2041.671756
20
-229.411389
30
0.0
10
2039.344318
20
-232.494612
30
0.0
10
2037.101630
20
-235.199149
30
0.0
10
2034.750628
20
-237.549807
30
0.0
10
2032.098249
20
-239.571389
30
0.0
10
2028.951429
20
-241.288700
30
0.0
10
2025.117107
20
-242.726545
30
0.0
10
2020.402218
20
-243.909729
30
0.0
10
2014.613700
20
-244.863056
30
0.0
10
2007.558489
20
-245.611330
30
0.0
10
1999.043522
20
-246.179358
30
0.0
10
1988.875736
20
-246.591942
30
0.0
10
1976.862068
20
-246.873889
30
0.0
10
1946.524833
20
-247.145087
30
0.0
10
1906.487311
20
-247.191389
30
0.0
10
1846.391617
20
-247.072326
30
0.0
10
1826.516999
20
-246.849084
30
0.0
10
1812.013422
20
-246.450556
30
0.0
10
1801.822554
20
-245.827131
30
0.0
10
1798.013657
20
-245.415580
30
0.0
10
1794.886061
20
-244.929201
30
0.0
10
1792.307476
20
-244.361794
30
0.0
10
1790.145610
20
-243.707157
30
0.0
10
1788.268170
20
-242.959089
30
0.0
10
1786.542867
20
-242.111389
30
0.0
62
0
0
LWPOLYLINE
100
AcDbPolyline
8
Layer_1
90
56
70
0
10
1871.209533
20
-106.080278
30
0.0
10
1871.209533
20
-52.458056
30
0.0
10
1893.222867
20
-52.458056
30
0.0
10
1899.842962
20
-52.508767
30
0.0
10
1905.279047
20
-52.705000
30
0.0
10
1909.802320
20
-53.112899
30
0.0
10
1913.683978
20
-53.798611
30
0.0
10
1917.195219
20
-54.828281
30
0.0
10
1920.607242
20
-56.268056
30
0.0
10
1924.191243
20
-58.184080
30
0.0
10
1928.218422
20
-60.642500
30
0.0
10
1930.918731
20
-62.480967
30
0.0
10
1933.463029
20
-64.446092
30
0.0
10
1935.850747
20
-66.530590
30
0.0
10
1938.081317
20
-68.727174
30
0.0
10
1940.154171
20
-71.028559
30
0.0
10
1942.068740
20
-73.427456
30
0.0
10
1943.824455
20
-75.916581
30
0.0
10
1945.420749
20
-78.488646
30
0.0
10
1946.857052
20
-81.136365
30
0.0
10
1948.132797
20
-83.852453
30
0.0
10
1949.247414
20
-86.629622
30
0.0
10
1950.200336
20
-89.460586
30
0.0
10
1950.990994
20
-92.338059
30
0.0
10
1951.618820
20
-95.254754
30
0.0
10
1952.083245
20
-98.203386
30
0.0
10
1952.383700
20
-101.176667
30
0.0
10
1952.519618
20
-104.167311
30
0.0
10
1952.490429
20
-107.168032
30
0.0
10
1952.295566
20
-110.171544
30
0.0
10
1951.934460
20
-113.170560
30
0.0
10
1951.406542
20
-116.157794
30
0.0
10
1950.711244
20
-119.125959
30
0.0
10
1949.847998
20
-122.067769
30
0.0
10
1948.816235
20
-124.975937
30
0.0
10
1947.615386
20
-127.843179
30
0.0
10
1946.244884
20
-130.662205
30
0.0
10
1944.704160
20
-133.425732
30
0.0
10
1942.992645
20
-136.126471
30
0.0
10
1941.109771
20
-138.757138
30
0.0
10
1939.054970
20
-141.310444
30
0.0
10
1936.827673
20
-143.779105
30
0.0
10
1934.427311
20
-146.155833
30
0.0
10
1930.232563
20
-149.735977
30
0.0
10
1926.004742
20
-152.677813
30
0.0
10
1923.826752
20
-153.924868
30
0.0
10
1921.578483
20
-155.030951
30
0.0
10
1919.239263
20
-156.002261
30
0.0
10
1916.788422
20
-156.845000
30
0.0
10
1914.205290
20
-157.565369
30
0.0
10
1911.469195
20
-158.169570
30
0.0
10
1905.455436
20
-159.054271
30
0.0
10
1898.581782
20
-159.548711
30
0.0
10
1890.682867
20
-159.702500
30
0.0
10
1871.209533
20
-159.702500
30
0.0
10
1871.209533
20
-106.080278
30
0.0
62
0
0
LWPOLYLINE
100
AcDbPolyline
8
Layer_1
90
276
70
0
10
64.140644
20
-235.902500
30
0.0
10
60.084870
20
-234.720212
30
0.0
10
56.075808
20
-233.296905
30
0.0
10
52.127101
20
-231.642915
30
0.0
10
48.252393
20
-229.768576
30
0.0
10
44.465327
20
-227.684225
30
0.0
10
40.779545
20
-225.400195
30
0.0
10
37.208691
20
-222.926823
30
0.0
10
33.766407
20
-220.274444
30
0.0
10
30.466337
20
-217.453394
30
0.0
10
27.322124
20
-214.474006
30
0.0
10
24.347409
20
-211.346617
30
0.0
10
21.555838
20
-208.081562
30
0.0
10
18.961052
20
-204.689177
30
0.0
10
16.576694
20
-201.179796
30
0.0
10
14.416408
20
-197.563755
30
0.0
10
12.493837
20
-193.851389
30
0.0
10
11.190902
20
-190.959645
30
0.0
10
10.034314
20
-187.809518
30
0.0
10
9.024901
20
-184.433669
30
0.0
10
8.163489
20
-180.864757
30
0.0
10
7.450906
20
-177.135441
30
0.0
10
6.887977
20
-173.278381
30
0.0
10
6.475530
20
-169.326236
30
0.0
10
6.214392
20
-165.311667
30
0.0
10
6.105389
20
-161.267331
30
0.0
10
6.149349
20
-157.225890
30
0.0
10
6.347097
20
-153.220002
30
0.0
10
6.699462
20
-149.282326
30
0.0
10
7.207269
20
-145.445524
30
0.0
10
7.871345
20
-141.742253
30
0.0
10
8.692518
20
-138.205173
30
0.0
10
9.671614
20
-134.866944
30
0.0
10
11.380177
20
-130.299230
30
0.0
10
13.352085
20
-126.000647
30
0.0
10
15.619171
20
-121.949283
30
0.0
10
18.213268
20
-118.123229
30
0.0
10
21.166208
20
-114.500573
30
0.0
10
24.509823
20
-111.059405
30
0.0
10
28.275945
20
-107.777814
30
0.0
10
32.496407
20
-104.633889
30
0.0
10
37.203041
20
-101.605719
30
0.0
10
42.427679
20
-98.671393
30
0.0
10
48.202153
20
-95.809001
30
0.0
10
54.558296
20
-92.996632
30
0.0
10
61.527940
20
-90.212375
30
0.0
10
69.142917
20
-87.434319
30
0.0
10
77.435060
20
-84.640553
30
0.0
10
86.436200
20
-81.809167
30
0.0
10
97.425779
20
-78.214141
30
0.0
10
102.060053
20
-76.472438
30
0.0
10
106.143249
20
-74.744792
30
0.0
10
109.692317
20
-73.013838
30
0.0
10
112.724208
20
-71.262214
30
0.0
10
115.255871
20
-69.472555
30
0.0
10
117.304256
20
-67.627500
30
0.0
10
118.886312
20
-65.709684
30
0.0
10
120.018991
20
-63.701745
30
0.0
10
120.719241
20
-61.586318
30
0.0
10
121.004012
20
-59.346042
30
0.0
10
120.890255
20
-56.963551
30
0.0
10
120.394920
20
-54.421484
30
0.0
10
119.534955
20
-51.702477
30
0.0
10
118.327311
20
-48.789167
30
0.0
10
117.520814
20
-47.244937
30
0.0
10
116.584920
20
-45.788351
30
0.0
10
115.522521
20
-44.421061
30
0.0
10
114.336512
20
-43.144722
30
0.0
10
111.605241
20
-40.871510
30
0.0
10
108.414256
20
-38.981944
30
0.0
10
104.786708
20
-37.489253
30
0.0
10
100.745749
20
-36.406667
30
0.0
10
96.314529
20
-35.747413
30
0.0
10
91.516200
20
-35.524722
30
0.0
10
87.253652
20
-35.665282
30
0.0
10
83.397901
20
-36.172951
30
0.0
10
79.694286
20
-37.176714
30
0.0
10
75.888144
20
-38.805556
30
0.0
10
71.724815
20
-41.188459
30
0.0
10
66.949637
20
-44.454410
30
0.0
10
61.307949
20
-48.732391
30
0.0
10
54.545089
20
-54.151389
30
0.0
10
50.804265
20
-57.128089
30
0.0
10
47.293295
20
-59.708741
30
0.0
10
43.990681
20
-61.894172
30
0.0
10
40.874928
20
-63.685208
30
0.0
10
37.924537
20
-65.082677
30
0.0
10
35.118013
20
-66.087405
30
0.0
10
32.433857
20
-66.700218
30
0.0
10
29.850574
20
-66.921944
30
0.0
10
27.346665
20
-66.753410
30
0.0
10
24.900635
20
-66.195443
30
0.0
10
22.490985
20
-65.248868
30
0.0
10
20.096220
20
-63.914514
30
0.0
10
17.694841
20
-62.193206
30
0.0
10
15.265353
20
-60.085773
30
0.0
10
12.786258
20
-57.593039
30
0.0
10
10.236059
20
-54.715833
30
0.0
10
7.712940
20
-51.685941
30
0.0
10
5.542461
20
-48.825547
30
0.0
10
3.726689
20
-46.112327
30
0.0
10
2.267691
20
-43.523958
30
0.0
10
1.167534
20
-41.038115
30
0.0
10
0.428285
20
-38.632474
30
0.0
10
0.052012
20
-36.284710
30
0.0
10
0.040781
20
-33.972500
30
0.0
10
0.396659
20
-31.673519
30
0.0
10
1.121714
20
-29.365443
30
0.0
10
2.218013
20
-27.025947
30
0.0
10
3.687621
20
-24.632708
30
0.0
10
5.532608
20
-22.163402
30
0.0
10
7.755039
20
-19.595703
30
0.0
10
10.356982
20
-16.907288
30
0.0
10
13.340503
20
-14.075833
30
0.0
10
16.603478
20
-11.157235
30
0.0
10
19.934510
20
-8.381366
30
0.0
10
23.330550
20
-5.748745
30
0.0
10
26.788549
20
-3.259887
30
0.0
10
30.305459
20
-0.915310
30
0.0
10
33.878230
20
1.284469
30
0.0
10
37.503814
20
3.338935
30
0.0
10
41.179161
20
5.247569
30
0.0
10
44.901224
20
7.009856
30
0.0
10
48.666952
20
8.625279
30
0.0
10
52.473298
20
10.093320
30
0.0
10
56.317212
20
11.413464
30
0.0
10
60.195645
20
12.585192
30
0.0
10
64.105548
20
13.607989
30
0.0
10
68.043873
20
14.481338
30
0.0
10
72.007571
20
15.204722
30
0.0
10
75.993593
20
15.777624
30
0.0
10
79.998889
20
16.199528
30
0.0
10
84.020412
20
16.469916
30
0.0
10
88.055112
20
16.588273
30
0.0
10
92.099940
20
16.554080
30
0.0
10
96.151847
20
16.366822
30
0.0
10
100.207785
20
16.025981
30
0.0
10
104.264705
20
15.531042
30
0.0
10
108.319557
20
14.881486
30
0.0
10
112.369293
20
14.076798
30
0.0
10
116.410864
20
13.116460
30
0.0
10
120.441221
20
11.999957
30
0.0
10
124.457316
20
10.726770
30
0.0
10
128.456099
20
9.296383
30
0.0
10
132.434521
20
7.708281
30
0.0
10
136.389533
20
5.961944
30
0.0
10
139.646897
20
4.390025
30
0.0
10
142.803130
20
2.693307
30
0.0
10
145.856320
20
0.875976
30
0.0
10
148.804555
20
-1.057782
30
0.0
10
151.645923
20
-3.103781
30
0.0
10
154.378513
20
-5.257836
30
0.0
10
157.000411
20
-7.515760
30
0.0
10
159.509707
20
-9.873368
30
0.0
10
164.182841
20
-14.870892
30
0.0
10
168.382619
20
-20.216923
30
0.0
10
172.093745
20
-25.877973
30
0.0
10
175.300922
20
-31.820556
30
0.0
10
177.988855
20
-38.011185
30
0.0
10
180.142246
20
-44.416376
30
0.0
10
181.745800
20
-51.002641
30
0.0
10
182.784221
20
-57.736493
30
0.0
10
183.242212
20
-64.584447
30
0.0
10
183.248766
20
-68.040748
30
0.0
10
183.104477
20
-71.513016
30
0.0
10
182.807432
20
-74.997067
30
0.0
10
182.355720
20
-78.488715
30
0.0
10
181.747428
20
-81.983773
30
0.0
10
180.980644
20
-85.478056
30
0.0
10
179.385152
20
-91.140414
30
0.0
10
177.543266
20
-96.394323
30
0.0
10
175.426875
20
-101.261278
30
0.0
10
173.007867
20
-105.762778
30
0.0
10
170.258129
20
-109.920319
30
0.0
10
167.149551
20
-113.755399
30
0.0
10
163.654019
20
-117.289516
30
0.0
10
159.743422
20
-120.544167
30
0.0
10
155.389648
20
-123.540849
30
0.0
10
150.564585
20
-126.301059
30
0.0
10
145.240121
20
-128.846296
30
0.0
10
139.388144
20
-131.198056
30
0.0
10
132.980542
20
-133.377836
30
0.0
10
125.989203
20
-135.407135
30
0.0
10
118.386016
20
-137.307450
30
0.0
10
110.142867
20
-139.100278
30
0.0
10
100.696690
20
-141.230725
30
0.0
10
92.464290
20
-143.602604
30
0.0
10
88.802223
20
-144.880114
30
0.0
10
85.442359
20
-146.219223
30
0.0
10
82.384285
20
-147.620343
30
0.0
10
79.627589
20
-149.083889
30
0.0
10
77.171856
20
-150.610273
30
0.0
10
75.016673
20
-152.199909
30
0.0
10
73.161627
20
-153.853210
30
0.0
10
71.606304
20
-155.570590
30
0.0
10
70.350291
20
-157.352463
30
0.0
10
69.393175
20
-159.199240
30
0.0
10
68.734541
20
-161.111337
30
0.0
10
68.373978
20
-163.089167
30
0.0
10
68.234314
20
-165.258061
30
0.0
10
68.341456
20
-167.316988
30
0.0
10
68.690858
20
-169.261813
30
0.0
10
69.277971
20
-171.088403
30
0.0
10
70.098248
20
-172.792623
30
0.0
10
71.147142
20
-174.370339
30
0.0
10
72.420105
20
-175.817416
30
0.0
10
73.912589
20
-177.129722
30
0.0
10
75.620047
20
-178.303122
30
0.0
10
77.537932
20
-179.333481
30
0.0
10
79.661695
20
-180.216666
30
0.0
10
81.986790
20
-180.948542
30
0.0
10
84.508669
20
-181.524975
30
0.0
10
87.222784
20
-181.941832
30
0.0
10
90.124588
20
-182.194977
30
0.0
10
93.209533
20
-182.280278
30
0.0
10
97.214112
20
-182.205864
30
0.0
10
100.639915
20
-181.949549
30
0.0
10
103.622541
20
-181.461723
30
0.0
10
106.297589
20
-180.692778
30
0.0
10
108.800657
20
-179.593103
30
0.0
10
111.267346
20
-178.113090
30
0.0
10
113.833253
20
-176.203129
30
0.0
10
116.633978
20
-173.813611
30
0.0
10
119.234749
20
-171.617363
30
0.0
10
121.750358
20
-169.684457
30
0.0
10
124.188245
20
-168.013655
30
0.0
10
126.555853
20
-166.603715
30
0.0
10
128.860622
20
-165.453398
30
0.0
10
131.109993
20
-164.561463
30
0.0
10
133.311409
20
-163.926669
30
0.0
10
135.472311
20
-163.547778
30
0.0
10
137.600140
20
-163.423548
30
0.0
10
139.702337
20
-163.552739
30
0.0
10
141.786344
20
-163.934111
30
0.0
10
143.859603
20
-164.566424
30
0.0
10
145.929554
20
-165.448437
30
0.0
10
148.003639
20
-166.578911
30
0.0
10
150.089300
20
-167.956604
30
0.0
10
152.193978
20
-169.580278
30
0.0
10
155.850740
20
-173.007183
30
0.0
10
159.170158
20
-176.675521
30
0.0
10
162.105931
20
-180.509223
30
0.0
10
164.611756
20
-184.432222
30
0.0
10
166.641330
20
-188.368451
30
0.0
10
168.148353
20
-192.241840
30
0.0
10
169.086521
20
-195.976324
30
0.0
10
169.327816
20
-197.767705
30
0.0
10
169.409533
20
-199.495833
30
0.0
10
169.186842
20
-201.233815
30
0.0
10
168.540818
20
-203.147083
30
0.0
10
167.504533
20
-205.205872
30
0.0
10
166.111061
20
-207.380417
30
0.0
10
164.393474
20
-209.640951
30
0.0
10
162.384846
20
-211.957708
30
0.0
10
160.118249
20
-214.300924
30
0.0
10
157.626756
20
-216.640833
30
0.0
10
154.943440
20
-218.947669
30
0.0
10
152.101374
20
-221.191667
30
0.0
10
149.133631
20
-223.343060
30
0.0
10
146.073283
20
-225.372083
30
0.0
10
142.953405
20
-227.248971
30
0.0
10
139.807068
20
-228.943958
30
0.0
10
136.667346
20
-230.427279
30
0.0
10
133.567311
20
-231.669167
30
0.0
10
130.300947
20
-232.687192
30
0.0
10
126.579004
20
-233.622122
30
0.0
10
122.468454
20
-234.470236
30
0.0
10
118.036269
20
-235.227813
30
0.0
10
108.474889
20
-236.456471
30
0.0
10
98.430644
20
-237.278333
30
0.0
10
88.439316
20
-237.663633
30
0.0
10
79.036686
20
-237.582604
30
0.0
10
74.723564
20
-237.357915
30
0.0
10
70.758535
20
-237.005482
30
0.0
10
67.208571
20
-236.521584
30
0.0
10
64.140644
20
-235.902500
30
0.0
62
0
0
LWPOLYLINE
100
AcDbPolyline
8
Layer_1
90
90
70
0
10
1053.329533
20
-160.549167
30
0.0
10
1057.861832
20
-156.935055
30
0.0
10
1062.031569
20
-152.895543
30
0.0
10
1065.826755
20
-148.474865
30
0.0
10
1069.235401
20
-143.717257
30
0.0
10
1072.245519
20
-138.666954
30
0.0
10
1074.845119
20
-133.368190
30
0.0
10
1077.022213
20
-127.865201
30
0.0
10
1078.764811
20
-122.202222
30
0.0
10
1080.060925
20
-116.423488
30
0.0
10
1080.898565
20
-110.573234
30
0.0
10
1081.265744
20
-104.695694
30
0.0
10
1081.150471
20
-98.835104
30
0.0
10
1080.540758
20
-93.035699
30
0.0
10
1079.424616
20
-87.341714
30
0.0
10
1077.790056
20
-81.797384
30
0.0
10
1075.625089
20
-76.446944
30
0.0
10
1074.225829
20
-73.638089
30
0.0
10
1072.487572
20
-70.737457
30
0.0
10
1070.448351
20
-67.778946
30
0.0
10
1068.146200
20
-64.796458
30
0.0
10
1065.619154
20
-61.823892
30
0.0
10
1062.905245
20
-58.895148
30
0.0
10
1060.042509
20
-56.044124
30
0.0
10
1057.068978
20
-53.304722
30
0.0
10
1054.022687
20
-50.710841
30
0.0
10
1050.941669
20
-48.296380
30
0.0
10
1047.863958
20
-46.095240
30
0.0
10
1044.827589
20
-44.141319
30
0.0
10
1041.870595
20
-42.468519
30
0.0
10
1039.031009
20
-41.110738
30
0.0
10
1036.346866
20
-40.101876
30
0.0
10
1033.856200
20
-39.475833
30
0.0
10
1028.453739
20
-38.661688
30
0.0
10
1023.153804
20
-38.227882
30
0.0
10
1017.966317
20
-38.171107
30
0.0
10
1012.901200
20
-38.488056
30
0.0
10
1007.968374
20
-39.175421
30
0.0
10
1003.177762
20
-40.229896
30
0.0
10
998.539286
20
-41.648173
30
0.0
10
994.062867
20
-43.426944
30
0.0
10
989.758427
20
-45.562904
30
0.0
10
985.635888
20
-48.052743
30
0.0
10
981.705171
20
-50.893155
30
0.0
10
977.976200
20
-54.080833
30
0.0
10
974.458895
20
-57.612470
30
0.0
10
971.163179
20
-61.484757
30
0.0
10
968.098973
20
-65.694388
30
0.0
10
965.276200
20
-70.238056
30
0.0
10
962.886682
20
-74.598720
30
0.0
10
960.976721
20
-78.506285
30
0.0
10
959.496708
20
-82.169110
30
0.0
10
958.397033
20
-85.795556
30
0.0
10
957.628088
20
-89.593980
30
0.0
10
957.140262
20
-93.772743
30
0.0
10
956.883947
20
-98.540204
30
0.0
10
956.809533
20
-104.104722
30
0.0
10
956.897728
20
-109.483136
30
0.0
10
957.171131
20
-114.522140
30
0.0
10
957.642971
20
-119.246124
30
0.0
10
958.326478
20
-123.679479
30
0.0
10
959.234881
20
-127.846598
30
0.0
10
960.381408
20
-131.771871
30
0.0
10
961.779290
20
-135.479689
30
0.0
10
963.441756
20
-138.994444
30
0.0
10
965.382033
20
-142.340528
30
0.0
10
967.613353
20
-145.542331
30
0.0
10
970.148943
20
-148.624244
30
0.0
10
973.002033
20
-151.610660
30
0.0
10
976.185853
20
-154.525968
30
0.0
10
979.713631
20
-157.394562
30
0.0
10
983.598596
20
-160.240831
30
0.0
10
987.853978
20
-163.089167
30
0.0
10
991.830996
20
-165.626962
30
0.0
10
995.275540
20
-167.569444
30
0.0
10
998.475345
20
-168.982760
30
0.0
10
1001.718144
20
-169.933056
30
0.0
10
1005.291673
20
-170.486476
30
0.0
10
1009.483665
20
-170.709167
30
0.0
10
1014.581855
20
-170.667274
30
0.0
10
1020.873978
20
-170.426944
30
0.0
10
1026.783006
20
-170.071962
30
0.0
10
1031.739533
20
-169.597917
30
0.0
10
1035.955228
20
-168.938663
30
0.0
10
1039.641756
20
-168.028056
30
0.0
10
1043.010783
20
-166.799948
30
0.0
10
1046.273978
20
-165.188194
30
0.0
10
1049.643006
20
-163.126649
30
0.0
10
1053.329533
20
-160.549167
30
0.0
10
1053.329533
20
-160.549167
30
0.0
62
0
0
LWPOLYLINE
100
AcDbPolyline
8
Layer_1
90
129
70
0
10
996.320644
20
-232.798056
30
0.0
10
989.943566
20
-231.330927
30
0.0
10
983.536309
20
-229.382174
30
0.0
10
977.134839
20
-226.979496
30
0.0
10
970.775124
20
-224.150590
30
0.0
10
964.493130
20
-220.923156
30
0.0
10
958.324824
20
-217.324891
30
0.0
10
952.306173
20
-213.383496
30
0.0
10
946.473144
20
-209.126667
30
0.0
10
940.861704
20
-204.582103
30
0.0
10
935.507819
20
-199.777504
30
0.0
10
930.447456
20
-194.740568
30
0.0
10
925.716582
20
-189.498993
30
0.0
10
921.351164
20
-184.080478
30
0.0
10
917.387168
20
-178.512721
30
0.0
10
913.860561
20
-172.823422
30
0.0
10
910.807311
20
-167.040278
30
0.0
10
908.399499
20
-161.872445
30
0.0
10
906.202734
20
-156.690246
30
0.0
10
904.216396
20
-151.497506
30
0.0
10
902.439863
20
-146.298047
30
0.0
10
900.872517
20
-141.095694
30
0.0
10
899.513737
20
-135.894272
30
0.0
10
898.362903
20
-130.697604
30
0.0
10
897.419394
20
-125.509514
30
0.0
10
896.682592
20
-120.333826
30
0.0
10
896.151875
20
-115.174365
30
0.0
10
895.826623
20
-110.034955
30
0.0
10
895.706217
20
-104.919418
30
0.0
10
895.790037
20
-99.831581
30
0.0
10
896.077461
20
-94.775266
30
0.0
10
896.567870
20
-89.754298
30
0.0
10
897.260644
20
-84.772500
30
0.0
10
898.155163
20
-79.833697
30
0.0
10
899.250807
20
-74.941713
30
0.0
10
900.546955
20
-70.100372
30
0.0
10
902.042988
20
-65.313498
30
0.0
10
903.738285
20
-60.584915
30
0.0
10
905.632226
20
-55.918447
30
0.0
10
907.724192
20
-51.317918
30
0.0
10
910.013561
20
-46.787153
30
0.0
10
912.499714
20
-42.329974
30
0.0
10
915.182031
20
-37.950207
30
0.0
10
918.059892
20
-33.651675
30
0.0
10
921.132676
20
-29.438203
30
0.0
10
924.399763
20
-25.313614
30
0.0
10
927.860534
20
-21.281733
30
0.0
10
931.514368
20
-17.346383
30
0.0
10
935.360644
20
-13.511389
30
0.0
10
942.113100
20
-7.389799
30
0.0
10
949.031335
20
-1.831688
30
0.0
10
956.109145
20
3.161702
30
0.0
10
963.340332
20
7.589132
30
0.0
10
970.718693
20
11.449361
30
0.0
10
978.238027
20
14.741150
30
0.0
10
985.892134
20
17.463258
30
0.0
10
993.674811
20
19.614444
30
0.0
10
1001.579858
20
21.193470
30
0.0
10
1009.601074
20
22.199093
30
0.0
10
1017.732257
20
22.630074
30
0.0
10
1025.967207
20
22.485174
30
0.0
10
1034.299722
20
21.763150
30
0.0
10
1042.723600
20
20.462765
30
0.0
10
1051.232642
20
18.582776
30
0.0
10
1059.820644
20
16.121944
30
0.0
10
1066.709733
20
13.697148
30
0.0
10
1073.076269
20
11.011076
30
0.0
10
1079.059160
20
7.961202
30
0.0
10
1084.797311
20
4.445000
30
0.0
10
1090.429629
20
0.359944
30
0.0
10
1096.095019
20
-4.396493
30
0.0
10
1101.932389
20
-9.926836
30
0.0
10
1108.080644
20
-16.333611
30
0.0
10
1112.473417
20
-21.133938
30
0.0
10
1116.552823
20
-26.015707
30
0.0
10
1120.322998
20
-30.987600
30
0.0
10
1123.788075
20
-36.058299
30
0.0
10
1126.952188
20
-41.236484
30
0.0
10
1129.819473
20
-46.530838
30
0.0
10
1132.394061
20
-51.950042
30
0.0
10
1134.680089
20
-57.502778
30
0.0
10
1136.681689
20
-63.197727
30
0.0
10
1138.402997
20
-69.043572
30
0.0
10
1139.848146
20
-75.048994
30
0.0
10
1141.021269
20
-81.222674
30
0.0
10
1141.926503
20
-87.573294
30
0.0
10
1142.567980
20
-94.109536
30
0.0
10
1142.949834
20
-100.840081
30
0.0
10
1143.076200
20
-107.773611
30
0.0
10
1142.945605
20
-113.592584
30
0.0
10
1142.557300
20
-119.350786
30
0.0
10
1141.916503
20
-125.042014
30
0.0
10
1141.028435
20
-130.660069
30
0.0
10
1139.898315
20
-136.198749
30
0.0
10
1138.531361
20
-141.651853
30
0.0
10
1136.932794
20
-147.013180
30
0.0
10
1135.107832
20
-152.276528
30
0.0
10
1133.061695
20
-157.435696
30
0.0
10
1130.799602
20
-162.484484
30
0.0
10
1128.326773
20
-167.416689
30
0.0
10
1125.648427
20
-172.226111
30
0.0
10
1122.769782
20
-176.906549
30
0.0
10
1119.696059
20
-181.451801
30
0.0
10
1116.432477
20
-185.855667
30
0.0
10
1112.984256
20
-190.111944
30
0.0
10
1109.356613
20
-194.214433
30
0.0
10
1105.554769
20
-198.156931
30
0.0
10
1101.583944
20
-201.933238
30
0.0
10
1097.449355
20
-205.537153
30
0.0
10
1093.156224
20
-208.962473
30
0.0
10
1088.709768
20
-212.202999
30
0.0
10
1084.115208
20
-215.252529
30
0.0
10
1079.377763
20
-218.104861
30
0.0
10
1074.502651
20
-220.753795
30
0.0
10
1069.495093
20
-223.193129
30
0.0
10
1064.360307
20
-225.416663
30
0.0
10
1059.103513
20
-227.418194
30
0.0
10
1053.729931
20
-229.191523
30
0.0
10
1048.244779
20
-230.730447
30
0.0
10
1042.653277
20
-232.028766
30
0.0
10
1036.960644
20
-233.080278
30
0.0
10
1030.503157
20
-234.098372
30
0.0
10
1025.094082
20
-234.822118
30
0.0
10
1020.405996
20
-235.248207
30
0.0
10
1016.111478
20
-235.373333
30
0.0
10
1011.883105
20
-235.194188
30
0.0
10
1007.393457
20
-234.707465
30
0.0
10
1002.315111
20
-233.909857
30
0.0
10
996.320644
20
-232.798056
30
0.0
62
0
0
LWPOLYLINE
100
AcDbPolyline
8
Layer_1
90
111
70
0
10
183.520644
20
-224.613611
30
0.0
10
182.221223
20
-223.022597
30
0.0
10
181.076005
20
-221.040082
30
0.0
10
180.087056
20
-218.724358
30
0.0
10
179.256443
20
-216.133715
30
0.0
10
178.586234
20
-213.326445
30
0.0
10
178.078496
20
-210.360838
30
0.0
10
177.735296
20
-207.295185
30
0.0
10
177.558700
20
-204.187778
30
0.0
10
177.550776
20
-201.096907
30
0.0
10
177.713591
20
-198.080864
30
0.0
10
178.049213
20
-195.197939
30
0.0
10
178.559707
20
-192.506424
30
0.0
10
179.247141
20
-190.064609
30
0.0
10
180.113583
20
-187.930786
30
0.0
10
181.161099
20
-186.163245
30
0.0
10
182.391756
20
-184.820278
30
0.0
10
184.135249
20
-183.826437
30
0.0
10
186.867624
20
-182.954965
30
0.0
10
190.651716
20
-182.195942
30
0.0
10
195.550367
20
-181.539444
30
0.0
10
201.626413
20
-180.975551
30
0.0
10
208.942693
20
-180.494340
30
0.0
10
227.547311
20
-179.740278
30
0.0
10
268.187311
20
-178.893611
30
0.0
10
268.187311
20
-86.324722
30
0.0
10
268.197784
20
-50.176024
30
0.0
10
268.282189
20
-35.685953
30
0.0
10
268.482762
20
-23.353889
30
0.0
10
268.847047
20
-13.006200
30
0.0
10
269.422585
20
-4.469253
30
0.0
10
270.256918
20
2.430584
30
0.0
10
270.785990
20
5.320847
30
0.0
10
271.397589
20
7.866944
30
0.0
10
272.097658
20
10.090581
30
0.0
10
272.892140
20
12.013461
30
0.0
10
273.786978
20
13.657289
30
0.0
10
274.788114
20
15.043767
30
0.0
10
275.901491
20
16.194602
30
0.0
10
277.133053
20
17.131495
30
0.0
10
278.488741
20
17.876153
30
0.0
10
279.974499
20
18.450278
30
0.0
10
281.596269
20
18.875575
30
0.0
10
283.359994
20
19.173748
30
0.0
10
287.337081
20
19.475538
30
0.0
10
297.256200
20
19.508611
30
0.0
10
302.165323
20
19.451836
30
0.0
10
306.366686
20
19.266076
30
0.0
10
309.946278
20
18.928181
30
0.0
10
312.990089
20
18.415000
30
0.0
10
315.584108
20
17.703381
30
0.0
10
317.814325
20
16.770174
30
0.0
10
319.766730
20
15.592227
30
0.0
10
321.527311
20
14.146389
30
0.0
10
322.570555
20
13.157784
30
0.0
10
323.483574
20
12.111302
30
0.0
10
324.275050
20
10.869690
30
0.0
10
324.953665
20
9.295694
30
0.0
10
325.528100
20
7.252064
30
0.0
10
326.007038
20
4.601545
30
0.0
10
326.399158
20
1.206886
30
0.0
10
326.713144
20
-3.069167
30
0.0
10
327.141439
20
-14.814462
30
0.0
10
327.361374
20
-31.732361
30
0.0
10
327.453978
20
-85.478056
30
0.0
10
327.453978
20
-179.458056
30
0.0
10
360.756200
20
-179.458056
30
0.0
10
372.658591
20
-179.591450
30
0.0
10
383.003249
20
-179.996042
30
0.0
10
391.846395
20
-180.678446
30
0.0
10
399.244256
20
-181.645278
30
0.0
10
405.253053
20
-182.903151
30
0.0
10
407.754124
20
-183.643295
30
0.0
10
409.929012
20
-184.458681
30
0.0
10
411.784748
20
-185.350133
30
0.0
10
413.328357
20
-186.318481
30
0.0
10
414.566869
20
-187.364550
30
0.0
10
415.507311
20
-188.489167
30
0.0
10
415.928440
20
-189.508915
30
0.0
10
416.336339
20
-191.037986
30
0.0
10
417.059533
20
-195.333056
30
0.0
10
417.571061
20
-200.792292
30
0.0
10
417.765089
20
-206.833611
30
0.0
10
417.799264
20
-214.970651
30
0.0
10
417.538126
20
-218.217722
30
0.0
10
417.249375
20
-219.653621
30
0.0
10
416.821408
20
-220.971181
30
0.0
10
416.228904
20
-222.175465
30
0.0
10
415.446540
20
-223.271540
30
0.0
10
414.448995
20
-224.264468
30
0.0
10
413.210948
20
-225.159314
30
0.0
10
411.707078
20
-225.961143
30
0.0
10
409.912063
20
-226.675018
30
0.0
10
407.800581
20
-227.306005
30
0.0
10
405.347311
20
-227.859167
30
0.0
10
399.314122
20
-228.752273
30
0.0
10
391.609924
20
-229.394852
30
0.0
10
382.032145
20
-229.827419
30
0.0
10
370.378214
20
-230.090486
30
0.0
10
340.031608
20
-230.270182
30
0.0
10
298.949533
20
-230.258056
30
0.0
10
236.900332
20
-230.130174
30
0.0
10
217.208166
20
-229.885985
30
0.0
10
203.452589
20
-229.446667
30
0.0
10
194.419824
20
-228.755994
30
0.0
10
191.295191
20
-228.298830
30
0.0
10
188.896096
20
-227.757743
30
0.0
10
187.070815
20
-227.125706
30
0.0
10
185.667628
20
-226.395690
30
0.0
10
184.534812
20
-225.560668
30
0.0
10
183.520644
20
-224.613611
30
0.0
62
0
0
LWPOLYLINE
100
AcDbPolyline
8
Layer_1
90
145
70
0
10
443.447311
20
-224.895833
30
0.0
10
441.947730
20
-223.229923
30
0.0
10
440.618474
20
-221.318446
30
0.0
10
439.451276
20
-219.028285
30
0.0
10
438.437867
20
-216.226319
30
0.0
10
437.569978
20
-212.779433
30
0.0
10
436.839342
20
-208.554505
30
0.0
10
436.237691
20
-203.418419
30
0.0
10
435.756756
20
-197.238056
30
0.0
10
435.388268
20
-189.880296
30
0.0
10
435.123960
20
-181.212023
30
0.0
10
434.874811
20
-159.411458
30
0.0
10
434.943162
20
-130.771415
30
0.0
10
435.262867
20
-94.226944
30
0.0
10
435.853769
20
-35.837812
30
0.0
10
436.245132
20
-17.654874
30
0.0
10
436.815089
20
-5.150556
30
0.0
10
437.193912
20
-0.638238
30
0.0
10
437.649629
20
2.921992
30
0.0
10
438.192989
20
5.685992
30
0.0
10
438.834742
20
7.809618
30
0.0
10
439.585635
20
9.448726
30
0.0
10
440.456417
20
10.759171
30
0.0
10
442.600644
20
13.017500
30
0.0
10
444.841886
20
15.160074
30
0.0
10
446.096865
20
16.026929
30
0.0
10
447.618908
20
16.770174
30
0.0
10
449.541134
20
17.399317
30
0.0
10
451.996660
20
17.923867
30
0.0
10
455.118606
20
18.353333
30
0.0
10
459.040089
20
18.697222
30
0.0
10
469.814143
20
19.166306
30
0.0
10
485.383769
20
19.407187
30
0.0
10
535.169533
20
19.508611
30
0.0
10
621.529533
20
19.508611
30
0.0
10
627.173978
20
12.453056
30
0.0
10
628.500546
20
10.382140
30
0.0
10
629.624130
20
7.818437
30
0.0
10
630.546795
20
4.838016
30
0.0
10
631.270610
20
1.516944
30
0.0
10
631.797640
20
-2.068711
30
0.0
10
632.129954
20
-5.842882
30
0.0
10
632.269619
20
-9.729501
30
0.0
10
632.218700
20
-13.652500
30
0.0
10
631.979266
20
-17.535812
30
0.0
10
631.553383
20
-21.303368
30
0.0
10
630.943119
20
-24.879102
30
0.0
10
630.150540
20
-28.186944
30
0.0
10
629.177714
20
-31.150829
30
0.0
10
628.026708
20
-33.694688
30
0.0
10
626.699588
20
-35.742452
30
0.0
10
625.198422
20
-37.218056
30
0.0
10
624.279822
20
-37.774025
30
0.0
10
623.088370
20
-38.279145
30
0.0
10
619.748006
20
-39.145104
30
0.0
10
614.899516
20
-39.832470
30
0.0
10
608.265089
20
-40.357778
30
0.0
10
599.566912
20
-40.737565
30
0.0
10
588.527172
20
-40.988368
30
0.0
10
558.311756
20
-41.169167
30
0.0
10
496.787311
20
-41.169167
30
0.0
10
496.787311
20
-75.035833
30
0.0
10
537.991756
20
-75.035833
30
0.0
10
554.351825
20
-75.278368
30
0.0
10
568.542311
20
-75.917778
30
0.0
10
579.028631
20
-76.821771
30
0.0
10
582.403170
20
-77.331645
30
0.0
10
584.276200
20
-77.858056
30
0.0
10
585.456869
20
-78.604608
30
0.0
10
586.564570
20
-79.514457
30
0.0
10
587.599098
20
-80.577269
30
0.0
10
588.560245
20
-81.782708
30
0.0
10
590.261571
20
-84.580126
30
0.0
10
591.666894
20
-87.824028
30
0.0
10
592.774562
20
-91.431732
30
0.0
10
593.582919
20
-95.320556
30
0.0
10
594.090312
20
-99.407817
30
0.0
10
594.295089
20
-103.610833
30
0.0
10
594.195595
20
-107.846923
30
0.0
10
593.790176
20
-112.033403
30
0.0
10
593.077179
20
-116.087591
30
0.0
10
592.054950
20
-119.926806
30
0.0
10
590.721836
20
-123.468364
30
0.0
10
589.076183
20
-126.629583
30
0.0
10
587.116337
20
-129.327782
30
0.0
10
586.018075
20
-130.477410
30
0.0
10
584.840644
20
-131.480278
30
0.0
10
582.490814
20
-133.181328
30
0.0
10
579.853249
20
-134.505347
30
0.0
10
576.560840
20
-135.498637
30
0.0
10
572.246478
20
-136.207500
30
0.0
10
566.543053
20
-136.678238
30
0.0
10
559.083457
20
-136.957153
30
0.0
10
537.427311
20
-137.124722
30
0.0
10
496.787311
20
-137.124722
30
0.0
10
496.787311
20
-168.169167
30
0.0
10
552.949533
20
-168.169167
30
0.0
10
578.072823
20
-168.292639
30
0.0
10
588.354504
20
-168.511471
30
0.0
10
597.249603
20
-168.892361
30
0.0
10
604.858165
20
-169.478303
30
0.0
10
611.280236
20
-170.312292
30
0.0
10
616.615863
20
-171.437322
30
0.0
10
618.907523
20
-172.122414
30
0.0
10
620.965089
20
-172.896389
30
0.0
10
622.801066
20
-173.764622
30
0.0
10
624.427961
20
-174.732487
30
0.0
10
625.858279
20
-175.805359
30
0.0
10
627.104525
20
-176.988611
30
0.0
10
628.179205
20
-178.287619
30
0.0
10
629.094825
20
-179.707756
30
0.0
10
629.863891
20
-181.254397
30
0.0
10
630.498908
20
-182.932917
30
0.0
10
631.416820
20
-186.707088
30
0.0
10
631.948605
20
-191.073264
30
0.0
10
632.194309
20
-196.074440
30
0.0
10
632.253978
20
-201.753611
30
0.0
10
632.225866
20
-211.486419
30
0.0
10
631.950740
20
-215.388128
30
0.0
10
631.288249
20
-218.708993
30
0.0
10
630.761743
20
-220.166208
30
0.0
10
630.078400
20
-221.495731
30
0.0
10
629.218220
20
-222.703400
30
0.0
10
628.161204
20
-223.795056
30
0.0
10
626.887354
20
-224.776538
30
0.0
10
625.376671
20
-225.653685
30
0.0
10
623.609157
20
-226.432337
30
0.0
10
621.564811
20
-227.118333
30
0.0
10
616.565633
20
-228.235716
30
0.0
10
610.219147
20
-229.052548
30
0.0
10
602.365363
20
-229.615545
30
0.0
10
592.844290
20
-229.971424
30
0.0
10
581.495939
20
-230.166898
30
0.0
10
568.160319
20
-230.248685
30
0.0
10
534.887311
20
-230.258056
30
0.0
10
487.024186
20
-230.134583
30
0.0
10
471.575827
20
-229.900868
30
0.0
10
460.592311
20
-229.481944
30
0.0
10
453.180670
20
-228.824896
30
0.0
10
450.535251
20
-228.390538
30
0.0
10
448.447936
20
-227.876806
30
0.0
10
446.807106
20
-227.277083
30
0.0
10
445.501139
20
-226.584757
30
0.0
10
444.418415
20
-225.793212
30
0.0
10
443.447311
20
-224.895833
30
0.0
62
0
0
LWPOLYLINE
100
AcDbPolyline
8
Layer_1
90
129
70
0
10
660.758422
20
-224.331389
30
0.0
10
659.586539
20
-222.861298
30
0.0
10
658.421269
20
-221.037326
30
0.0
10
657.295688
20
-218.928928
30
0.0
10
656.242867
20
-216.605556
30
0.0
10
655.295879
20
-214.136662
30
0.0
10
654.487797
20
-211.591701
30
0.0
10
653.851695
20
-209.040126
30
0.0
10
653.420644
20
-206.551389
30
0.0
10
653.036999
20
-202.129540
30
0.0
10
652.732728
20
-194.036597
30
0.0
10
652.362311
20
-168.663056
30
0.0
10
652.309394
20
-134.082014
30
0.0
10
652.573978
20
-93.944722
30
0.0
10
653.420644
20
7.373056
30
0.0
10
660.193978
20
12.735278
30
0.0
10
662.186552
20
14.074593
30
0.0
10
664.532593
20
15.234488
30
0.0
10
667.182078
20
16.214135
30
0.0
10
670.084985
20
17.012708
30
0.0
10
673.191290
20
17.629380
30
0.0
10
676.450970
20
18.063325
30
0.0
10
679.814003
20
18.313714
30
0.0
10
683.230367
20
18.379722
30
0.0
10
686.650037
20
18.260522
30
0.0
10
690.022993
20
17.955286
30
0.0
10
693.299209
20
17.463189
30
0.0
10
696.428665
20
16.783403
30
0.0
10
699.361337
20
15.915101
30
0.0
10
702.047203
20
14.857457
30
0.0
10
704.436239
20
13.609643
30
0.0
10
706.478422
20
12.170833
30
0.0
10
714.098422
20
6.526389
30
0.0
10
714.662867
20
-57.255833
30
0.0
10
715.509533
20
-121.320278
30
0.0
10
766.309533
20
-53.022500
30
0.0
10
784.795089
20
-28.363333
30
0.0
10
799.153144
20
-9.736667
30
0.0
10
805.065480
20
-2.437474
30
0.0
10
810.283283
20
3.651250
30
0.0
10
814.919004
20
8.628724
30
0.0
10
819.085089
20
12.594167
30
0.0
10
822.893986
20
15.646797
30
0.0
10
826.458144
20
17.885833
30
0.0
10
829.890011
20
19.410495
30
0.0
10
833.302033
20
20.320000
30
0.0
10
836.806660
20
20.713568
30
0.0
10
840.516339
20
20.690417
30
0.0
10
844.543518
20
20.349766
30
0.0
10
849.000644
20
19.790833
30
0.0
10
857.044529
20
18.736359
30
0.0
10
860.253911
20
18.047684
30
0.0
10
861.673006
20
17.568755
30
0.0
10
862.975054
20
16.964201
30
0.0
10
864.165068
20
16.207099
30
0.0
10
865.248059
20
15.270524
30
0.0
10
866.229042
20
14.127553
30
0.0
10
867.113027
20
12.751263
30
0.0
10
867.905029
20
11.114731
30
0.0
10
868.610059
20
9.191032
30
0.0
10
869.233130
20
6.953245
30
0.0
10
869.779256
20
4.374444
30
0.0
10
870.660718
20
-1.913888
30
0.0
10
871.294546
20
-9.889353
30
0.0
10
871.720842
20
-19.767338
30
0.0
10
871.979707
20
-31.763229
30
0.0
10
872.155545
20
-62.970282
30
0.0
10
872.142867
20
-105.233611
30
0.0
10
872.167120
20
-148.770247
30
0.0
10
871.966478
20
-180.847118
30
0.0
10
871.653663
20
-193.132811
30
0.0
10
871.130835
20
-203.207166
30
0.0
10
870.346732
20
-211.288051
30
0.0
10
869.840682
20
-214.649026
30
0.0
10
869.250089
20
-217.593333
30
0.0
10
868.568546
20
-220.148208
30
0.0
10
867.789644
20
-222.340882
30
0.0
10
866.906976
20
-224.198589
30
0.0
10
865.914134
20
-225.748563
30
0.0
10
864.804710
20
-227.018038
30
0.0
10
863.572296
20
-228.034246
30
0.0
10
862.210484
20
-228.824422
30
0.0
10
860.712867
20
-229.415799
30
0.0
10
859.073036
20
-229.835609
30
0.0
10
857.284583
20
-230.111088
30
0.0
10
853.236183
20
-230.337982
30
0.0
10
843.073978
20
-230.258056
30
0.0
10
833.337862
20
-230.226636
30
0.0
10
829.428299
20
-230.003187
30
0.0
10
826.092137
20
-229.477535
30
0.0
10
824.623709
20
-229.063012
30
0.0
10
823.280182
20
-228.526895
30
0.0
10
822.055407
20
-227.853835
30
0.0
10
820.943236
20
-227.028485
30
0.0
10
819.937517
20
-226.035497
30
0.0
10
819.032103
20
-224.859522
30
0.0
10
818.220844
20
-223.485213
30
0.0
10
817.497589
20
-221.897222
30
0.0
10
816.290496
20
-218.018803
30
0.0
10
815.361630
20
-213.101480
30
0.0
10
814.661793
20
-207.022471
30
0.0
10
814.141790
20
-199.658993
30
0.0
10
813.752426
20
-190.888262
30
0.0
10
813.444503
20
-180.587496
30
0.0
10
812.876200
20
-154.904722
30
0.0
10
811.465089
20
-87.735833
30
0.0
10
761.793978
20
-154.340278
30
0.0
10
741.941408
20
-180.617812
30
0.0
10
724.681756
20
-202.847222
30
0.0
10
717.603049
20
-211.708008
30
0.0
10
711.867103
20
-218.673715
30
0.0
10
707.705427
20
-223.449996
30
0.0
10
705.349533
20
-225.742500
30
0.0
10
703.251952
20
-226.973088
30
0.0
10
700.805866
20
-228.020122
30
0.0
10
698.066257
20
-228.885254
30
0.0
10
695.088110
20
-229.570139
30
0.0
10
691.926408
20
-230.076430
30
0.0
10
688.636135
20
-230.405781
30
0.0
10
685.272275
20
-230.559846
30
0.0
10
681.889811
20
-230.540278
30
0.0
10
678.543728
20
-230.348730
30
0.0
10
675.289008
20
-229.986858
30
0.0
10
672.180636
20
-229.456313
30
0.0
10
669.273596
20
-228.758750
30
0.0
10
666.622870
20
-227.895822
30
0.0
10
664.283444
20
-226.869184
30
0.0
10
662.310300
20
-225.680488
30
0.0
10
660.758422
20
-224.331389
30
0.0
  0
ENDSEC
  0
SECTION
  2
OBJECTS
  0
DICTIONARY
  5
C
330
0
100
AcDbDictionary
  3
ACAD_GROUP
350
D
  3
ACAD_MLINESTYLE
350
17
  0
DICTIONARY
  5
D
330
C
100
AcDbDictionary
  0
DICTIONARY
  5
1A
330
C
100
AcDbDictionary
  0
DICTIONARY
  5
17
330
C
100
AcDbDictionary
  3
STANDARD
350
18
  0
DICTIONARY
  5
19
330
C
100
AcDbDictionary
  0
ENDSEC
  0
EOF
