<?xml version="1.0" encoding="utf-8"?>
<!-- Generator: Adobe Illustrator 19.2.0, SVG Export Plug-In . SVG Version: 6.00 Build 0)  -->
<svg version="1.1" id="Layer_1" xmlns="http://www.w3.org/2000/svg" xmlns:xlink="http://www.w3.org/1999/xlink" x="0px" y="0px"
	 viewBox="0 0 726 100" style="enable-background:new 0 0 726 100;" xml:space="preserve">
<g transform="translate(0.000000,100.000000) scale(0.100000,-0.100000)">
	<path d="M4180,982c-22-12-44-35-57-62c-23-44-23-50-23-415c0-213,4-385,10-406c5-19,24-48,41-65l30-29l419-3l419-3l35,32
		c20,17,41,47,46,67c7,24,10,169,8,424c-3,373-4,388-24,415c-46,62-50,63-479,63C4247,1000,4212,999,4180,982z M4382,853
		c10-9,63-78,119-154c55-76,104-141,108-144c5-2,59,65,120,150c62,86,121,160,131,165c35,19,89,12,115-15l25-24V505
		c0-387,0-385-91-385c-83,0-83,1-89,227l-5,198l-72-106c-113-168-142-167-265,5l-78,108V357c0-232-2-239-88-240c-90-1-87-15-90,356
		c-2,177,0,336,3,354c4,22,14,35,33,42C4293,882,4359,874,4382,853z"/>
	<path d="M5260,982c-19-9-45-32-57-51c-23-34-23-35-23-428c0-438,1-443,65-483c31-19,49-20,434-20c444,0,443,0,481,63
		c19,30,20,53,20,439v406l-26,32c-52,61-46,60-471,60C5334,1000,5292,998,5260,982z M5836,850c155-76,245-250,215-415
		c-25-133-104-241-219-297c-58-29-76-33-147-33c-99,0-167,22-235,76c-203,161-195,490,15,635C5586,899,5713,911,5836,850z"/>
	<path d="M5627,690c-81-25-137-105-137-195c0-187,216-275,333-135c77,91,52,247-49,306C5725,695,5670,704,5627,690z"/>
	<path d="M6330,982c-22-12-44-35-57-62c-23-44-23-50-23-415c0-213,4-385,10-406c5-19,24-48,41-65l30-29l419-3l419-3l35,32
		c20,17,41,47,46,67c7,24,10,169,8,424c-3,373-4,388-24,415c-46,62-50,63-479,63C6397,1000,6362,999,6330,982z M6815,864
		c239-62,356-310,252-533c-27-59-119-151-178-178c-69-32-165-46-295-41c-167,5-154-28-154,388c0,413-18,378,190,379
		C6714,880,6776,875,6815,864z"/>
	<path d="M6630,500V310h78c69,0,83,3,124,29c105,67,116,215,22,303c-40,37-75,48-155,48h-69V500z"/>
	<path d="M227,960c-77-20-149-78-183-149c-26-52-30-148-10-209c30-89,95-134,272-188c115-35,139-60,113-117c-14-30-48-47-95-47
		c-43,0-61,9-131,66c-73,60-108,60-157,2c-51-59-49-89,11-144C169,61,334,34,483,103c125,57,190,192,158,324c-28,111-89,157-251,190
		c-95,19-144,47-148,85c-5,42,28,68,88,68c41,0,55-5,83-30c50-44,86-48,126-15c36,31,61,74,61,106c0,31-69,93-127,114
		C416,965,280,973,227,960z"/>
	<path d="M3530,949c-120-23-250-123-303-233c-95-195-62-401,87-544c126-121,278-157,441-105c68,22,111,50,171,115
		c86,90,124,191,124,324c0,221-159,409-376,444C3607,961,3592,961,3530,949z M3732,693c89-64,125-199,79-298c-23-52-103-123-148-131
		c-103-19-192,20-243,109c-25,44-30,63-30,120c0,105,26,155,110,209c41,27,51,29,117,26C3678,725,3695,720,3732,693z"/>
	<path d="M650,920c-26-26-29-120-4-141c12-10,59-15,160-18l144-3V430c0-390-4-375,103-375c50,0,70,4,86,19c21,19,21,26,21,353v333
		h118c120,0,179,10,194,32c4,7,8,36,8,65c0,88,23,83-421,83C683,940,669,939,650,920z"/>
	<path d="M1571,921c-30-30-33-77-29-463c3-357,3-358,26-380c22-23,24-23,328-23h306l20,25c27,34,23,154-7,176c-15,11-66,14-237,14
		h-218v60v60h146c80,0,154,5,164,10c46,25,48,155,2,190c-22,18-41,20-168,20h-144v55v55h199c268,0,281,5,281,119
		c0,105,14,101-345,101C1607,940,1589,939,1571,921z"/>
	<path d="M2341,919c-11-12-23-40-26-63c-4-23-5-202-3-399l3-359l24-19c34-27,129-27,164,2l27,20l2,226l3,227l180-242
		c197-264,204-270,293-258c87,12,82-14,82,443c0,471,7,443-103,443c-105,0-101,10-107-267l-5-238l-176,236c-97,130-187,244-200,253
		C2463,949,2366,946,2341,919z"/>
</g>
</svg>
